<svg xmlns="http://www.w3.org/2000/svg" xmlns:xlink="http://www.w3.org/1999/xlink" width="500" zoomAndPan="magnify" viewBox="0 0 375 374.999991" height="500" preserveAspectRatio="xMidYMid meet" version="1.0"><defs><g/><linearGradient x1="0.0000104167" gradientTransform="matrix(0.75, 0, 0, 0.75, 0.0000045, 0)" y1="499.99999" x2="499.99999" gradientUnits="userSpaceOnUse" y2="0.0000104167" id="b917bbd905"><stop stop-opacity="1" stop-color="rgb(7.058716%, 8.239746%, 12.939453%)" offset="0"/><stop stop-opacity="1" stop-color="rgb(7.058716%, 8.239746%, 12.939453%)" offset="0.125"/><stop stop-opacity="1" stop-color="rgb(7.058716%, 8.239746%, 12.939453%)" offset="0.140625"/><stop stop-opacity="1" stop-color="rgb(7.058716%, 8.239746%, 12.939453%)" offset="0.148437"/><stop stop-opacity="1" stop-color="rgb(7.244873%, 8.483887%, 13.301086%)" offset="0.152344"/><stop stop-opacity="1" stop-color="rgb(7.43103%, 8.729553%, 13.664246%)" offset="0.15625"/><stop stop-opacity="1" stop-color="rgb(7.66449%, 9.034729%, 14.117432%)" offset="0.160156"/><stop stop-opacity="1" stop-color="rgb(7.897949%, 9.341431%, 14.572144%)" offset="0.164062"/><stop stop-opacity="1" stop-color="rgb(8.129883%, 9.648132%, 15.02533%)" offset="0.167969"/><stop stop-opacity="1" stop-color="rgb(8.363342%, 9.954834%, 15.478516%)" offset="0.171875"/><stop stop-opacity="1" stop-color="rgb(8.595276%, 10.26001%, 15.931702%)" offset="0.175781"/><stop stop-opacity="1" stop-color="rgb(8.828735%, 10.566711%, 16.384888%)" offset="0.179687"/><stop stop-opacity="1" stop-color="rgb(9.060669%, 10.871887%, 16.838074%)" offset="0.183594"/><stop stop-opacity="1" stop-color="rgb(9.294128%, 11.178589%, 17.292786%)" offset="0.1875"/><stop stop-opacity="1" stop-color="rgb(9.526062%, 11.485291%, 17.745972%)" offset="0.191406"/><stop stop-opacity="1" stop-color="rgb(9.759521%, 11.791992%, 18.199158%)" offset="0.195312"/><stop stop-opacity="1" stop-color="rgb(9.991455%, 12.097168%, 18.652344%)" offset="0.199219"/><stop stop-opacity="1" stop-color="rgb(10.224915%, 12.40387%, 19.10553%)" offset="0.203125"/><stop stop-opacity="1" stop-color="rgb(10.458374%, 12.710571%, 19.558716%)" offset="0.207031"/><stop stop-opacity="1" stop-color="rgb(10.691833%, 13.017273%, 20.013428%)" offset="0.210938"/><stop stop-opacity="1" stop-color="rgb(10.923767%, 13.322449%, 20.466614%)" offset="0.214844"/><stop stop-opacity="1" stop-color="rgb(11.157227%, 13.62915%, 20.9198%)" offset="0.21875"/><stop stop-opacity="1" stop-color="rgb(11.38916%, 13.934326%, 21.372986%)" offset="0.222656"/><stop stop-opacity="1" stop-color="rgb(11.62262%, 14.241028%, 21.826172%)" offset="0.226562"/><stop stop-opacity="1" stop-color="rgb(11.854553%, 14.547729%, 22.279358%)" offset="0.230469"/><stop stop-opacity="1" stop-color="rgb(12.088013%, 14.854431%, 22.73407%)" offset="0.234375"/><stop stop-opacity="1" stop-color="rgb(12.319946%, 15.159607%, 23.187256%)" offset="0.238281"/><stop stop-opacity="1" stop-color="rgb(12.553406%, 15.466309%, 23.640442%)" offset="0.242188"/><stop stop-opacity="1" stop-color="rgb(12.785339%, 15.77301%, 24.093628%)" offset="0.246094"/><stop stop-opacity="1" stop-color="rgb(13.018799%, 16.079712%, 24.546814%)" offset="0.25"/><stop stop-opacity="1" stop-color="rgb(13.250732%, 16.384888%, 25%)" offset="0.253906"/><stop stop-opacity="1" stop-color="rgb(13.484192%, 16.691589%, 25.454712%)" offset="0.257812"/><stop stop-opacity="1" stop-color="rgb(13.717651%, 16.998291%, 25.907898%)" offset="0.261719"/><stop stop-opacity="1" stop-color="rgb(13.951111%, 17.304993%, 26.361084%)" offset="0.265625"/><stop stop-opacity="1" stop-color="rgb(14.183044%, 17.610168%, 26.81427%)" offset="0.269531"/><stop stop-opacity="1" stop-color="rgb(14.416504%, 17.91687%, 27.267456%)" offset="0.273437"/><stop stop-opacity="1" stop-color="rgb(14.648438%, 18.222046%, 27.720642%)" offset="0.277344"/><stop stop-opacity="1" stop-color="rgb(14.881897%, 18.528748%, 28.175354%)" offset="0.28125"/><stop stop-opacity="1" stop-color="rgb(15.113831%, 18.835449%, 28.62854%)" offset="0.285156"/><stop stop-opacity="1" stop-color="rgb(15.34729%, 19.142151%, 29.081726%)" offset="0.289062"/><stop stop-opacity="1" stop-color="rgb(15.579224%, 19.447327%, 29.534912%)" offset="0.292969"/><stop stop-opacity="1" stop-color="rgb(15.812683%, 19.754028%, 29.988098%)" offset="0.296875"/><stop stop-opacity="1" stop-color="rgb(16.044617%, 20.06073%, 30.441284%)" offset="0.300781"/><stop stop-opacity="1" stop-color="rgb(16.278076%, 20.367432%, 30.895996%)" offset="0.304687"/><stop stop-opacity="1" stop-color="rgb(16.511536%, 20.672607%, 31.349182%)" offset="0.308594"/><stop stop-opacity="1" stop-color="rgb(16.744995%, 20.979309%, 31.802368%)" offset="0.3125"/><stop stop-opacity="1" stop-color="rgb(16.976929%, 21.284485%, 32.255554%)" offset="0.316406"/><stop stop-opacity="1" stop-color="rgb(17.210388%, 21.591187%, 32.70874%)" offset="0.320312"/><stop stop-opacity="1" stop-color="rgb(17.442322%, 21.897888%, 33.161926%)" offset="0.324219"/><stop stop-opacity="1" stop-color="rgb(17.675781%, 22.20459%, 33.616638%)" offset="0.328125"/><stop stop-opacity="1" stop-color="rgb(17.907715%, 22.509766%, 34.069824%)" offset="0.332031"/><stop stop-opacity="1" stop-color="rgb(18.141174%, 22.816467%, 34.52301%)" offset="0.335937"/><stop stop-opacity="1" stop-color="rgb(18.373108%, 23.123169%, 34.976196%)" offset="0.339844"/><stop stop-opacity="1" stop-color="rgb(18.606567%, 23.429871%, 35.429382%)" offset="0.34375"/><stop stop-opacity="1" stop-color="rgb(18.838501%, 23.735046%, 35.882568%)" offset="0.347656"/><stop stop-opacity="1" stop-color="rgb(19.07196%, 24.041748%, 36.33728%)" offset="0.351562"/><stop stop-opacity="1" stop-color="rgb(19.303894%, 24.346924%, 36.790466%)" offset="0.355469"/><stop stop-opacity="1" stop-color="rgb(19.537354%, 24.653625%, 37.243652%)" offset="0.359375"/><stop stop-opacity="1" stop-color="rgb(19.770813%, 24.960327%, 37.696838%)" offset="0.363281"/><stop stop-opacity="1" stop-color="rgb(20.004272%, 25.267029%, 38.150024%)" offset="0.367187"/><stop stop-opacity="1" stop-color="rgb(20.236206%, 25.572205%, 38.60321%)" offset="0.371094"/><stop stop-opacity="1" stop-color="rgb(20.469666%, 25.878906%, 39.057922%)" offset="0.375"/><stop stop-opacity="1" stop-color="rgb(20.701599%, 26.185608%, 39.511108%)" offset="0.378906"/><stop stop-opacity="1" stop-color="rgb(20.935059%, 26.49231%, 39.964294%)" offset="0.382812"/><stop stop-opacity="1" stop-color="rgb(21.166992%, 26.797485%, 40.41748%)" offset="0.386719"/><stop stop-opacity="1" stop-color="rgb(21.400452%, 27.104187%, 40.870667%)" offset="0.390625"/><stop stop-opacity="1" stop-color="rgb(21.632385%, 27.409363%, 41.323853%)" offset="0.394531"/><stop stop-opacity="1" stop-color="rgb(21.865845%, 27.716064%, 41.778564%)" offset="0.398438"/><stop stop-opacity="1" stop-color="rgb(22.683716%, 27.494812%, 41.494751%)" offset="0.402344"/><stop stop-opacity="1" stop-color="rgb(23.503113%, 27.275085%, 41.212463%)" offset="0.40625"/><stop stop-opacity="1" stop-color="rgb(24.467468%, 26.922607%, 40.744019%)" offset="0.410156"/><stop stop-opacity="1" stop-color="rgb(25.43335%, 26.570129%, 40.2771%)" offset="0.414062"/><stop stop-opacity="1" stop-color="rgb(26.397705%, 26.217651%, 39.810181%)" offset="0.417969"/><stop stop-opacity="1" stop-color="rgb(27.363586%, 25.866699%, 39.343262%)" offset="0.421875"/><stop stop-opacity="1" stop-color="rgb(28.327942%, 25.514221%, 38.874817%)" offset="0.425781"/><stop stop-opacity="1" stop-color="rgb(29.293823%, 25.161743%, 38.407898%)" offset="0.429688"/><stop stop-opacity="1" stop-color="rgb(30.258179%, 24.809265%, 37.940979%)" offset="0.433594"/><stop stop-opacity="1" stop-color="rgb(31.22406%, 24.456787%, 37.47406%)" offset="0.4375"/><stop stop-opacity="1" stop-color="rgb(32.188416%, 24.104309%, 37.007141%)" offset="0.441406"/><stop stop-opacity="1" stop-color="rgb(33.154297%, 23.751831%, 36.540222%)" offset="0.445312"/><stop stop-opacity="1" stop-color="rgb(34.118652%, 23.399353%, 36.071777%)" offset="0.449219"/><stop stop-opacity="1" stop-color="rgb(35.083008%, 23.046875%, 35.604858%)" offset="0.453125"/><stop stop-opacity="1" stop-color="rgb(36.047363%, 22.694397%, 35.137939%)" offset="0.457031"/><stop stop-opacity="1" stop-color="rgb(37.013245%, 22.341919%, 34.671021%)" offset="0.460938"/><stop stop-opacity="1" stop-color="rgb(37.9776%, 21.989441%, 34.204102%)" offset="0.464844"/><stop stop-opacity="1" stop-color="rgb(38.943481%, 21.638489%, 33.737183%)" offset="0.46875"/><stop stop-opacity="1" stop-color="rgb(39.907837%, 21.286011%, 33.268738%)" offset="0.472656"/><stop stop-opacity="1" stop-color="rgb(40.873718%, 20.933533%, 32.801819%)" offset="0.476562"/><stop stop-opacity="1" stop-color="rgb(41.838074%, 20.581055%, 32.3349%)" offset="0.480469"/><stop stop-opacity="1" stop-color="rgb(42.803955%, 20.228577%, 31.867981%)" offset="0.484375"/><stop stop-opacity="1" stop-color="rgb(43.768311%, 19.876099%, 31.401062%)" offset="0.488281"/><stop stop-opacity="1" stop-color="rgb(44.734192%, 19.523621%, 30.934143%)" offset="0.492188"/><stop stop-opacity="1" stop-color="rgb(45.698547%, 19.171143%, 30.465698%)" offset="0.496094"/><stop stop-opacity="1" stop-color="rgb(46.664429%, 18.818665%, 29.998779%)" offset="0.5"/><stop stop-opacity="1" stop-color="rgb(47.628784%, 18.466187%, 29.53186%)" offset="0.503906"/><stop stop-opacity="1" stop-color="rgb(48.594666%, 18.115234%, 29.064941%)" offset="0.507812"/><stop stop-opacity="1" stop-color="rgb(49.559021%, 17.762756%, 28.598022%)" offset="0.511719"/><stop stop-opacity="1" stop-color="rgb(50.524902%, 17.410278%, 28.131104%)" offset="0.515625"/><stop stop-opacity="1" stop-color="rgb(51.489258%, 17.0578%, 27.662659%)" offset="0.519531"/><stop stop-opacity="1" stop-color="rgb(52.455139%, 16.705322%, 27.19574%)" offset="0.523438"/><stop stop-opacity="1" stop-color="rgb(53.419495%, 16.352844%, 26.728821%)" offset="0.527344"/><stop stop-opacity="1" stop-color="rgb(54.38385%, 16.000366%, 26.261902%)" offset="0.53125"/><stop stop-opacity="1" stop-color="rgb(55.348206%, 15.647888%, 25.794983%)" offset="0.535156"/><stop stop-opacity="1" stop-color="rgb(56.314087%, 15.29541%, 25.328064%)" offset="0.539062"/><stop stop-opacity="1" stop-color="rgb(57.278442%, 14.942932%, 24.859619%)" offset="0.542969"/><stop stop-opacity="1" stop-color="rgb(58.244324%, 14.590454%, 24.3927%)" offset="0.546875"/><stop stop-opacity="1" stop-color="rgb(59.208679%, 14.237976%, 23.925781%)" offset="0.550781"/><stop stop-opacity="1" stop-color="rgb(60.174561%, 13.887024%, 23.458862%)" offset="0.554688"/><stop stop-opacity="1" stop-color="rgb(61.138916%, 13.534546%, 22.990417%)" offset="0.558594"/><stop stop-opacity="1" stop-color="rgb(62.104797%, 13.182068%, 22.523499%)" offset="0.5625"/><stop stop-opacity="1" stop-color="rgb(63.069153%, 12.82959%, 22.05658%)" offset="0.566406"/><stop stop-opacity="1" stop-color="rgb(64.035034%, 12.477112%, 21.589661%)" offset="0.570312"/><stop stop-opacity="1" stop-color="rgb(64.99939%, 12.124634%, 21.122742%)" offset="0.574219"/><stop stop-opacity="1" stop-color="rgb(65.965271%, 11.772156%, 20.655823%)" offset="0.578125"/><stop stop-opacity="1" stop-color="rgb(66.929626%, 11.419678%, 20.187378%)" offset="0.582031"/><stop stop-opacity="1" stop-color="rgb(67.895508%, 11.0672%, 19.720459%)" offset="0.585938"/><stop stop-opacity="1" stop-color="rgb(68.859863%, 10.714722%, 19.25354%)" offset="0.589844"/><stop stop-opacity="1" stop-color="rgb(69.825745%, 10.362244%, 18.786621%)" offset="0.59375"/><stop stop-opacity="1" stop-color="rgb(70.68634%, 10.28595%, 18.566895%)" offset="0.597656"/><stop stop-opacity="1" stop-color="rgb(71.548462%, 10.211182%, 18.348694%)" offset="0.601562"/><stop stop-opacity="1" stop-color="rgb(71.995544%, 11.239624%, 19.119263%)" offset="0.605469"/><stop stop-opacity="1" stop-color="rgb(72.442627%, 12.269592%, 19.891357%)" offset="0.609375"/><stop stop-opacity="1" stop-color="rgb(72.889709%, 13.299561%, 20.663452%)" offset="0.613281"/><stop stop-opacity="1" stop-color="rgb(73.336792%, 14.329529%, 21.435547%)" offset="0.617188"/><stop stop-opacity="1" stop-color="rgb(73.783875%, 15.357971%, 22.207642%)" offset="0.621094"/><stop stop-opacity="1" stop-color="rgb(74.232483%, 16.387939%, 22.979736%)" offset="0.625"/><stop stop-opacity="1" stop-color="rgb(74.679565%, 17.417908%, 23.751831%)" offset="0.628906"/><stop stop-opacity="1" stop-color="rgb(75.126648%, 18.447876%, 24.523926%)" offset="0.632812"/><stop stop-opacity="1" stop-color="rgb(75.57373%, 19.476318%, 25.296021%)" offset="0.636719"/><stop stop-opacity="1" stop-color="rgb(76.022339%, 20.506287%, 26.068115%)" offset="0.640625"/><stop stop-opacity="1" stop-color="rgb(76.469421%, 21.534729%, 26.84021%)" offset="0.644531"/><stop stop-opacity="1" stop-color="rgb(76.916504%, 22.564697%, 27.612305%)" offset="0.648438"/><stop stop-opacity="1" stop-color="rgb(77.363586%, 23.594666%, 28.384399%)" offset="0.652344"/><stop stop-opacity="1" stop-color="rgb(77.810669%, 24.624634%, 29.156494%)" offset="0.65625"/><stop stop-opacity="1" stop-color="rgb(78.257751%, 25.653076%, 29.928589%)" offset="0.660156"/><stop stop-opacity="1" stop-color="rgb(78.70636%, 26.683044%, 30.700684%)" offset="0.664062"/><stop stop-opacity="1" stop-color="rgb(79.153442%, 27.713013%, 31.472778%)" offset="0.667969"/><stop stop-opacity="1" stop-color="rgb(79.600525%, 28.742981%, 32.244873%)" offset="0.671875"/><stop stop-opacity="1" stop-color="rgb(80.047607%, 29.771423%, 33.016968%)" offset="0.675781"/><stop stop-opacity="1" stop-color="rgb(80.49469%, 30.801392%, 33.789062%)" offset="0.679688"/><stop stop-opacity="1" stop-color="rgb(80.941772%, 31.83136%, 34.561157%)" offset="0.683594"/><stop stop-opacity="1" stop-color="rgb(81.390381%, 32.861328%, 35.333252%)" offset="0.6875"/><stop stop-opacity="1" stop-color="rgb(81.837463%, 33.889771%, 36.105347%)" offset="0.691406"/><stop stop-opacity="1" stop-color="rgb(82.284546%, 34.919739%, 36.877441%)" offset="0.695312"/><stop stop-opacity="1" stop-color="rgb(82.731628%, 35.948181%, 37.64801%)" offset="0.699219"/><stop stop-opacity="1" stop-color="rgb(83.178711%, 36.978149%, 38.420105%)" offset="0.703125"/><stop stop-opacity="1" stop-color="rgb(83.625793%, 38.008118%, 39.1922%)" offset="0.707031"/><stop stop-opacity="1" stop-color="rgb(84.074402%, 39.038086%, 39.964294%)" offset="0.710938"/><stop stop-opacity="1" stop-color="rgb(84.521484%, 40.066528%, 40.736389%)" offset="0.714844"/><stop stop-opacity="1" stop-color="rgb(84.968567%, 41.096497%, 41.508484%)" offset="0.71875"/><stop stop-opacity="1" stop-color="rgb(85.415649%, 42.126465%, 42.280579%)" offset="0.722656"/><stop stop-opacity="1" stop-color="rgb(85.862732%, 43.156433%, 43.052673%)" offset="0.726562"/><stop stop-opacity="1" stop-color="rgb(86.309814%, 44.184875%, 43.824768%)" offset="0.730469"/><stop stop-opacity="1" stop-color="rgb(86.758423%, 45.214844%, 44.596863%)" offset="0.734375"/><stop stop-opacity="1" stop-color="rgb(87.205505%, 46.244812%, 45.368958%)" offset="0.738281"/><stop stop-opacity="1" stop-color="rgb(87.652588%, 47.27478%, 46.141052%)" offset="0.742188"/><stop stop-opacity="1" stop-color="rgb(88.09967%, 48.303223%, 46.913147%)" offset="0.746094"/><stop stop-opacity="1" stop-color="rgb(88.546753%, 49.333191%, 47.685242%)" offset="0.75"/><stop stop-opacity="1" stop-color="rgb(88.993835%, 50.361633%, 48.457336%)" offset="0.753906"/><stop stop-opacity="1" stop-color="rgb(89.442444%, 51.391602%, 49.229431%)" offset="0.757813"/><stop stop-opacity="1" stop-color="rgb(89.889526%, 52.42157%, 50.001526%)" offset="0.761719"/><stop stop-opacity="1" stop-color="rgb(90.336609%, 53.451538%, 50.773621%)" offset="0.765625"/><stop stop-opacity="1" stop-color="rgb(90.783691%, 54.47998%, 51.545715%)" offset="0.769531"/><stop stop-opacity="1" stop-color="rgb(91.230774%, 55.509949%, 52.31781%)" offset="0.773438"/><stop stop-opacity="1" stop-color="rgb(91.677856%, 56.539917%, 53.089905%)" offset="0.777344"/><stop stop-opacity="1" stop-color="rgb(92.126465%, 57.569885%, 53.862%)" offset="0.78125"/><stop stop-opacity="1" stop-color="rgb(92.573547%, 58.598328%, 54.634094%)" offset="0.785156"/><stop stop-opacity="1" stop-color="rgb(93.02063%, 59.628296%, 55.406189%)" offset="0.789063"/><stop stop-opacity="1" stop-color="rgb(93.467712%, 60.658264%, 56.176758%)" offset="0.792969"/><stop stop-opacity="1" stop-color="rgb(93.914795%, 61.688232%, 56.948853%)" offset="0.796875"/><stop stop-opacity="1" stop-color="rgb(94.361877%, 62.716675%, 57.720947%)" offset="0.800781"/><stop stop-opacity="1" stop-color="rgb(94.810486%, 63.746643%, 58.493042%)" offset="0.804688"/><stop stop-opacity="1" stop-color="rgb(95.257568%, 64.775085%, 59.265137%)" offset="0.808594"/><stop stop-opacity="1" stop-color="rgb(95.704651%, 65.805054%, 60.037231%)" offset="0.8125"/><stop stop-opacity="1" stop-color="rgb(96.151733%, 66.835022%, 60.809326%)" offset="0.816406"/><stop stop-opacity="1" stop-color="rgb(96.598816%, 67.86499%, 61.581421%)" offset="0.820313"/><stop stop-opacity="1" stop-color="rgb(97.045898%, 68.893433%, 62.353516%)" offset="0.824219"/><stop stop-opacity="1" stop-color="rgb(97.494507%, 69.923401%, 63.12561%)" offset="0.828125"/><stop stop-opacity="1" stop-color="rgb(97.941589%, 70.953369%, 63.897705%)" offset="0.832031"/><stop stop-opacity="1" stop-color="rgb(98.388672%, 71.983337%, 64.6698%)" offset="0.835938"/><stop stop-opacity="1" stop-color="rgb(98.835754%, 73.01178%, 65.441895%)" offset="0.839844"/><stop stop-opacity="1" stop-color="rgb(99.282837%, 74.041748%, 66.213989%)" offset="0.84375"/><stop stop-opacity="1" stop-color="rgb(99.641418%, 74.865723%, 66.83197%)" offset="0.847656"/><stop stop-opacity="1" stop-color="rgb(100%, 75.689697%, 67.449951%)" offset="0.851563"/><stop stop-opacity="1" stop-color="rgb(100%, 75.689697%, 67.449951%)" offset="0.859375"/><stop stop-opacity="1" stop-color="rgb(100%, 75.689697%, 67.449951%)" offset="0.875"/><stop stop-opacity="1" stop-color="rgb(100%, 75.689697%, 67.449951%)" offset="1"/></linearGradient><clipPath id="8171090e1b"><path d="M 184 104.074219 L 193 104.074219 L 193 122 L 184 122 Z M 184 104.074219 " clip-rule="nonzero"/></clipPath></defs><rect x="-37.5" width="450" fill="#ffffff" y="-37.499999" height="449.999989" fill-opacity="1"/><rect x="-37.5" fill="url(#b917bbd905)" width="450" y="-37.499999" height="449.999989"/><g fill="#c5c8cf" fill-opacity="1"><g transform="translate(60.034355, 231.135527)"><g><path d="M 0.171875 -0.1875 L 0.171875 -0.859375 C 0.171875 -0.984375 0.234375 -1.046875 0.359375 -1.046875 L 0.875 -1.046875 C 1.539062 -1.085938 2.21875 -1.113281 2.90625 -1.125 C 3.601562 -1.132812 4.238281 -1.21875 4.8125 -1.375 C 6.101562 -1.75 6.75 -2.695312 6.75 -4.21875 L 6.75 -29.171875 C 6.75 -30.734375 5.828125 -31.726562 3.984375 -32.15625 C 3.460938 -32.257812 2.929688 -32.351562 2.390625 -32.4375 L 1.890625 -32.4375 C 1.765625 -32.4375 1.703125 -32.5 1.703125 -32.625 L 1.703125 -33.1875 C 1.703125 -33.3125 1.765625 -33.375 1.890625 -33.375 L 24.40625 -33.375 C 24.6875 -33.375 24.890625 -33.320312 25.015625 -33.21875 C 25.148438 -33.125 25.234375 -32.898438 25.265625 -32.546875 L 25.6875 -25.6875 C 25.6875 -25.53125 25.566406 -25.453125 25.328125 -25.453125 C 25.085938 -25.453125 24.914062 -25.519531 24.8125 -25.65625 C 24.71875 -25.820312 24.59375 -26.398438 24.4375 -27.390625 C 24.289062 -28.378906 24.019531 -29.207031 23.625 -29.875 C 23.226562 -30.539062 22.535156 -30.957031 21.546875 -31.125 L 11.671875 -31.125 C 11.460938 -31.125 11.359375 -31.023438 11.359375 -30.828125 L 11.359375 -18.578125 C 11.359375 -18.421875 11.4375 -18.34375 11.59375 -18.34375 L 19.796875 -18.34375 C 21.910156 -18.34375 22.96875 -19.578125 22.96875 -22.046875 C 22.96875 -22.171875 23.03125 -22.234375 23.15625 -22.234375 L 23.71875 -22.234375 C 23.84375 -22.234375 23.90625 -22.171875 23.90625 -22.046875 L 23.90625 -11.90625 C 23.90625 -11.78125 23.84375 -11.71875 23.71875 -11.71875 L 23.15625 -11.71875 C 23.03125 -11.71875 22.96875 -11.78125 22.96875 -11.90625 C 22.96875 -14.238281 22.285156 -15.585938 20.921875 -15.953125 C 20.546875 -16.046875 20.144531 -16.09375 19.71875 -16.09375 L 11.59375 -16.09375 C 11.4375 -16.09375 11.359375 -16.015625 11.359375 -15.859375 L 11.359375 -4.328125 C 11.359375 -3.148438 11.90625 -2.476562 13 -2.3125 C 13.3125 -2.269531 13.640625 -2.25 13.984375 -2.25 L 21.875 -2.25 C 23.5 -2.25 24.757812 -2.96875 25.65625 -4.40625 C 26.3125 -5.425781 26.707031 -6.601562 26.84375 -7.9375 C 26.894531 -8.375 27.132812 -8.59375 27.5625 -8.59375 C 27.75 -8.59375 27.84375 -8.488281 27.84375 -8.28125 L 27.0625 -0.328125 C 26.96875 -0.109375 26.859375 0 26.734375 0 L 0.359375 0 C 0.234375 0 0.171875 -0.0625 0.171875 -0.1875 Z M 0.171875 -0.1875 "/></g></g></g><g fill="#c5c8cf" fill-opacity="1"><g transform="translate(89.955893, 231.135527)"><g><path d="M 19.984375 -33.09375 C 20.140625 -33.09375 20.21875 -32.921875 20.21875 -32.578125 L 20.828125 -27.53125 C 20.890625 -27.21875 20.921875 -27.015625 20.921875 -26.921875 C 20.921875 -26.835938 20.796875 -26.796875 20.546875 -26.796875 C 20.304688 -26.796875 20.15625 -26.828125 20.09375 -26.890625 C 20.03125 -26.953125 19.96875 -27.054688 19.90625 -27.203125 C 19.84375 -27.359375 19.769531 -27.53125 19.6875 -27.71875 C 19.601562 -27.90625 19.507812 -28.097656 19.40625 -28.296875 C 19.082031 -29.015625 18.5625 -29.726562 17.84375 -30.4375 C 16.113281 -32.113281 14.160156 -32.953125 11.984375 -32.953125 C 10.671875 -32.953125 9.429688 -32.523438 8.265625 -31.671875 C 7.097656 -30.816406 6.515625 -29.8125 6.515625 -28.65625 C 6.515625 -27.5 6.726562 -26.492188 7.15625 -25.640625 C 7.59375 -24.785156 8.164062 -23.992188 8.875 -23.265625 C 9.582031 -22.546875 10.394531 -21.851562 11.3125 -21.1875 C 12.226562 -20.519531 13.160156 -19.847656 14.109375 -19.171875 C 16.617188 -17.421875 18.398438 -15.921875 19.453125 -14.671875 C 21.117188 -12.753906 22.019531 -10.59375 22.15625 -8.1875 C 22.15625 -5.507812 21.125 -3.367188 19.0625 -1.765625 C 17.007812 -0.160156 14.617188 0.640625 11.890625 0.640625 C 10.128906 0.640625 8.734375 0.460938 7.703125 0.109375 C 6.671875 -0.242188 5.957031 -0.5 5.5625 -0.65625 C 5.164062 -0.820312 4.875 -0.90625 4.6875 -0.90625 C 4.507812 -0.90625 4.398438 -0.894531 4.359375 -0.875 L 3.203125 -0.640625 C 2.992188 -0.640625 2.863281 -0.804688 2.8125 -1.140625 C 2.351562 -5.046875 2.125 -7.117188 2.125 -7.359375 C 2.125 -7.609375 2.144531 -7.773438 2.1875 -7.859375 C 2.226562 -7.953125 2.335938 -8 2.515625 -8 C 2.953125 -8 3.351562 -7.367188 3.71875 -6.109375 C 5.375 -2.554688 8.128906 -0.78125 11.984375 -0.78125 C 13.742188 -0.78125 15.25 -1.316406 16.5 -2.390625 C 17.757812 -3.460938 18.390625 -4.859375 18.390625 -6.578125 C 18.390625 -9.328125 16.75 -11.882812 13.46875 -14.25 C 12.539062 -14.914062 11.195312 -15.835938 9.4375 -17.015625 C 7.6875 -18.203125 6.289062 -19.390625 5.25 -20.578125 C 3.625 -22.398438 2.8125 -24.4375 2.8125 -26.6875 C 2.8125 -28.9375 3.707031 -30.78125 5.5 -32.21875 C 7.289062 -33.65625 9.347656 -34.375 11.671875 -34.375 C 12.867188 -34.375 14.1875 -34.164062 15.625 -33.75 C 17.070312 -33.34375 18.082031 -33.070312 18.65625 -32.9375 Z M 19.984375 -33.09375 "/></g></g></g><g fill="#c5c8cf" fill-opacity="1"><g transform="translate(114.24347, 231.135527)"><g><path d="M 9.453125 -0.75 C 9.453125 -0.882812 9.519531 -0.953125 9.65625 -0.953125 L 10.328125 -0.953125 C 11.867188 -0.953125 13.109375 -1.28125 14.046875 -1.9375 C 14.984375 -2.601562 15.453125 -3.378906 15.453125 -4.265625 L 15.453125 -30.46875 C 15.453125 -30.800781 15.382812 -30.984375 15.25 -31.015625 C 15.125 -31.054688 14.960938 -31.09375 14.765625 -31.125 L 5.6875 -31.125 C 4.21875 -30.8125 3.253906 -29.6875 2.796875 -27.75 C 2.546875 -26.707031 2.394531 -26.039062 2.34375 -25.75 C 2.289062 -25.457031 2.203125 -25.3125 2.078125 -25.3125 L 1.65625 -25.3125 C 1.5625 -25.3125 1.515625 -25.34375 1.515625 -25.40625 L 1.515625 -26.1875 L 2.390625 -33.5625 C 2.484375 -34.050781 2.640625 -34.296875 2.859375 -34.296875 C 3.085938 -34.296875 3.328125 -34.140625 3.578125 -33.828125 C 3.828125 -33.523438 4.304688 -33.375 5.015625 -33.375 L 30.546875 -33.375 C 31.222656 -33.375 31.628906 -33.453125 31.765625 -33.609375 C 31.910156 -33.773438 32.046875 -33.929688 32.171875 -34.078125 C 32.296875 -34.222656 32.457031 -34.296875 32.65625 -34.296875 C 32.851562 -34.296875 32.976562 -34.21875 33.03125 -34.0625 C 33.09375 -33.90625 33.140625 -33.738281 33.171875 -33.5625 L 34.046875 -26.1875 L 34.046875 -25.40625 C 34.046875 -25.34375 34 -25.3125 33.90625 -25.3125 L 33.46875 -25.3125 C 33.34375 -25.3125 33.257812 -25.425781 33.21875 -25.65625 C 32.957031 -27.238281 32.59375 -28.488281 32.125 -29.40625 C 31.65625 -30.332031 30.90625 -30.90625 29.875 -31.125 L 20.765625 -31.125 C 20.578125 -31.09375 20.414062 -31.054688 20.28125 -31.015625 C 20.144531 -30.984375 20.078125 -30.800781 20.078125 -30.46875 L 20.078125 -4.265625 C 20.078125 -3.378906 20.546875 -2.601562 21.484375 -1.9375 C 22.421875 -1.28125 23.664062 -0.953125 25.21875 -0.953125 L 25.90625 -0.953125 C 26.03125 -0.953125 26.09375 -0.882812 26.09375 -0.75 L 26.09375 -0.1875 C 26.09375 -0.0625 26.03125 0 25.90625 0 L 9.640625 0 C 9.515625 0 9.453125 -0.0625 9.453125 -0.1875 Z M 9.453125 -0.75 "/></g></g></g><g fill="#c5c8cf" fill-opacity="1"><g transform="translate(149.798967, 231.135527)"><g><path d="M 34.5 -4.28125 C 34.5 -2.15625 35.972656 -1.046875 38.921875 -0.953125 C 39.046875 -0.953125 39.109375 -0.882812 39.109375 -0.75 L 39.109375 -0.1875 C 39.109375 -0.0625 39.046875 0 38.921875 0 L 23.859375 0 C 23.734375 0 23.671875 -0.0625 23.671875 -0.1875 L 23.671875 -0.75 C 23.671875 -0.882812 24.066406 -0.953125 24.859375 -0.953125 C 25.648438 -0.953125 26.550781 -1.125 27.5625 -1.46875 C 29.101562 -1.96875 29.875 -2.820312 29.875 -4.03125 L 29.875 -15.3125 C 29.875 -15.46875 29.847656 -15.570312 29.796875 -15.625 C 29.753906 -15.675781 29.65625 -15.703125 29.5 -15.703125 L 10.84375 -15.703125 C 10.6875 -15.703125 10.582031 -15.675781 10.53125 -15.625 C 10.488281 -15.570312 10.46875 -15.46875 10.46875 -15.3125 L 10.46875 -3.78125 C 10.46875 -1.894531 11.863281 -0.953125 14.65625 -0.953125 C 14.78125 -0.953125 14.84375 -0.882812 14.84375 -0.75 L 14.84375 -0.1875 C 14.84375 -0.0625 14.785156 0 14.671875 0 L 1.609375 0 C 1.484375 0 1.421875 -0.0625 1.421875 -0.1875 L 1.421875 -0.75 C 1.421875 -0.882812 1.578125 -0.953125 1.890625 -0.953125 C 4.523438 -0.953125 5.84375 -2.078125 5.84375 -4.328125 L 5.84375 -29.59375 C 5.84375 -31.4375 4.75 -32.414062 2.5625 -32.53125 C 2.226562 -32.539062 2.0625 -32.609375 2.0625 -32.734375 L 2.0625 -33.1875 C 2.0625 -33.3125 2.113281 -33.375 2.21875 -33.375 L 14.109375 -33.375 C 14.234375 -33.375 14.296875 -33.3125 14.296875 -33.1875 L 14.296875 -32.734375 C 14.296875 -32.640625 14.144531 -32.59375 13.84375 -32.59375 C 11.59375 -32.59375 10.46875 -31.484375 10.46875 -29.265625 L 10.46875 -18.328125 C 10.46875 -18.171875 10.488281 -18.066406 10.53125 -18.015625 C 10.582031 -17.960938 10.6875 -17.9375 10.84375 -17.9375 L 29.5 -17.9375 C 29.65625 -17.9375 29.753906 -17.960938 29.796875 -18.015625 C 29.847656 -18.066406 29.875 -18.171875 29.875 -18.328125 L 29.875 -29.640625 C 29.84375 -29.785156 29.820312 -29.914062 29.8125 -30.03125 C 29.8125 -30.144531 29.785156 -30.332031 29.734375 -30.59375 C 29.617188 -31.125 29.054688 -31.554688 28.046875 -31.890625 C 27.035156 -32.234375 25.894531 -32.453125 24.625 -32.546875 C 24.5 -32.546875 24.4375 -32.609375 24.4375 -32.734375 L 24.4375 -33.1875 C 24.4375 -33.3125 24.488281 -33.375 24.59375 -33.375 L 38.25 -33.375 C 38.382812 -33.375 38.453125 -33.3125 38.453125 -33.1875 L 38.453125 -32.734375 C 38.453125 -32.640625 38.300781 -32.59375 38 -32.59375 C 35.664062 -32.59375 34.5 -31.484375 34.5 -29.265625 Z M 34.5 -4.28125 "/></g></g></g><g fill="#c5c8cf" fill-opacity="1"><g transform="translate(190.325606, 231.135527)"><g><path d="M 0.171875 -0.1875 L 0.171875 -0.859375 C 0.171875 -0.984375 0.234375 -1.046875 0.359375 -1.046875 L 0.875 -1.046875 C 1.539062 -1.085938 2.21875 -1.113281 2.90625 -1.125 C 3.601562 -1.132812 4.238281 -1.21875 4.8125 -1.375 C 6.101562 -1.75 6.75 -2.695312 6.75 -4.21875 L 6.75 -29.171875 C 6.75 -30.734375 5.828125 -31.726562 3.984375 -32.15625 C 3.460938 -32.257812 2.929688 -32.351562 2.390625 -32.4375 L 1.890625 -32.4375 C 1.765625 -32.4375 1.703125 -32.5 1.703125 -32.625 L 1.703125 -33.1875 C 1.703125 -33.3125 1.765625 -33.375 1.890625 -33.375 L 24.40625 -33.375 C 24.6875 -33.375 24.890625 -33.320312 25.015625 -33.21875 C 25.148438 -33.125 25.234375 -32.898438 25.265625 -32.546875 L 25.6875 -25.6875 C 25.6875 -25.53125 25.566406 -25.453125 25.328125 -25.453125 C 25.085938 -25.453125 24.914062 -25.519531 24.8125 -25.65625 C 24.71875 -25.820312 24.59375 -26.398438 24.4375 -27.390625 C 24.289062 -28.378906 24.019531 -29.207031 23.625 -29.875 C 23.226562 -30.539062 22.535156 -30.957031 21.546875 -31.125 L 11.671875 -31.125 C 11.460938 -31.125 11.359375 -31.023438 11.359375 -30.828125 L 11.359375 -18.578125 C 11.359375 -18.421875 11.4375 -18.34375 11.59375 -18.34375 L 19.796875 -18.34375 C 21.910156 -18.34375 22.96875 -19.578125 22.96875 -22.046875 C 22.96875 -22.171875 23.03125 -22.234375 23.15625 -22.234375 L 23.71875 -22.234375 C 23.84375 -22.234375 23.90625 -22.171875 23.90625 -22.046875 L 23.90625 -11.90625 C 23.90625 -11.78125 23.84375 -11.71875 23.71875 -11.71875 L 23.15625 -11.71875 C 23.03125 -11.71875 22.96875 -11.78125 22.96875 -11.90625 C 22.96875 -14.238281 22.285156 -15.585938 20.921875 -15.953125 C 20.546875 -16.046875 20.144531 -16.09375 19.71875 -16.09375 L 11.59375 -16.09375 C 11.4375 -16.09375 11.359375 -16.015625 11.359375 -15.859375 L 11.359375 -4.328125 C 11.359375 -3.148438 11.90625 -2.476562 13 -2.3125 C 13.3125 -2.269531 13.640625 -2.25 13.984375 -2.25 L 21.875 -2.25 C 23.5 -2.25 24.757812 -2.96875 25.65625 -4.40625 C 26.3125 -5.425781 26.707031 -6.601562 26.84375 -7.9375 C 26.894531 -8.375 27.132812 -8.59375 27.5625 -8.59375 C 27.75 -8.59375 27.84375 -8.488281 27.84375 -8.28125 L 27.0625 -0.328125 C 26.96875 -0.109375 26.859375 0 26.734375 0 L 0.359375 0 C 0.234375 0 0.171875 -0.0625 0.171875 -0.1875 Z M 0.171875 -0.1875 "/></g></g></g><g fill="#c5c8cf" fill-opacity="1"><g transform="translate(220.247143, 231.135527)"><g><path d="M 13.0625 -32.4375 C 11.175781 -32.4375 10.234375 -31.707031 10.234375 -30.25 C 10.234375 -29.988281 10.28125 -29.707031 10.375 -29.40625 C 10.476562 -29.101562 10.570312 -28.785156 10.65625 -28.453125 L 19.71875 -6.625 C 19.800781 -6.46875 19.925781 -6.390625 20.09375 -6.390625 C 20.269531 -6.390625 20.414062 -6.476562 20.53125 -6.65625 L 25.75 -18.96875 L 21.140625 -30.109375 C 20.859375 -30.816406 19.675781 -31.5 17.59375 -32.15625 C 16.976562 -32.34375 16.578125 -32.4375 16.390625 -32.4375 C 16.210938 -32.4375 16.125 -32.5 16.125 -32.625 L 16.125 -33.1875 C 16.125 -33.3125 16.1875 -33.375 16.3125 -33.375 L 38 -33.375 C 38.125 -33.375 38.1875 -33.3125 38.1875 -33.1875 L 38.1875 -32.625 C 38.1875 -32.5 38.125 -32.4375 38 -32.4375 L 37.125 -32.4375 C 35.601562 -32.4375 34.453125 -31.691406 33.671875 -30.203125 C 33.398438 -29.703125 33.117188 -29.113281 32.828125 -28.4375 L 29.765625 -21.21875 L 35.8125 -6.625 C 35.894531 -6.46875 36.019531 -6.390625 36.1875 -6.390625 C 36.363281 -6.390625 36.507812 -6.476562 36.625 -6.65625 L 46.640625 -30.203125 C 46.828125 -30.648438 46.921875 -31.046875 46.921875 -31.390625 C 46.921875 -32.085938 46.015625 -32.4375 44.203125 -32.4375 L 42.734375 -32.4375 C 42.609375 -32.4375 42.546875 -32.5 42.546875 -32.625 L 42.546875 -33.1875 C 42.546875 -33.3125 42.609375 -33.375 42.734375 -33.375 L 53.265625 -33.375 C 53.390625 -33.375 53.453125 -33.3125 53.453125 -33.1875 L 53.453125 -32.625 C 53.453125 -32.5 53.390625 -32.4375 53.265625 -32.4375 L 52.15625 -32.4375 C 51.457031 -32.4375 50.929688 -32.191406 50.578125 -31.703125 C 50.222656 -31.222656 49.722656 -30.242188 49.078125 -28.765625 L 36.90625 -0.1875 C 36.726562 0.1875 36.546875 0.414062 36.359375 0.5 C 36.171875 0.59375 35.894531 0.640625 35.53125 0.640625 L 34.421875 0.640625 C 34.046875 0.640625 33.796875 0.46875 33.671875 0.125 L 27.265625 -15.359375 L 20.8125 -0.1875 C 20.632812 0.1875 20.453125 0.414062 20.265625 0.5 C 20.078125 0.59375 19.800781 0.640625 19.4375 0.640625 L 18.328125 0.640625 C 17.941406 0.640625 17.695312 0.457031 17.59375 0.09375 L 5.046875 -30.109375 C 4.785156 -30.722656 4 -31.265625 2.6875 -31.734375 C 1.382812 -32.203125 0.578125 -32.4375 0.265625 -32.4375 C -0.0351562 -32.4375 -0.1875 -32.5 -0.1875 -32.625 L -0.1875 -33.1875 C -0.1875 -33.3125 -0.125 -33.375 0 -33.375 L 13.5 -33.375 C 13.625 -33.375 13.6875 -33.3125 13.6875 -33.1875 L 13.6875 -32.625 C 13.6875 -32.5 13.625 -32.4375 13.5 -32.4375 Z M 30.828125 -31.328125 C 30.828125 -31.984375 30.144531 -32.34375 28.78125 -32.40625 C 27.414062 -32.332031 26.628906 -31.851562 26.421875 -30.96875 C 26.359375 -30.75 26.328125 -30.507812 26.328125 -30.25 C 26.328125 -29.988281 26.378906 -29.707031 26.484375 -29.40625 C 26.585938 -29.101562 26.675781 -28.785156 26.75 -28.453125 L 28.25 -24.828125 L 30.546875 -30.203125 C 30.734375 -30.648438 30.828125 -31.023438 30.828125 -31.328125 Z M 30.828125 -31.328125 "/></g></g></g><g fill="#c5c8cf" fill-opacity="1"><g transform="translate(273.793451, 231.135527)"><g><path d="M 12.59375 -0.1875 C 12.59375 -0.0625 12.53125 0 12.40625 0 L 0.3125 0 C 0.1875 0 0.125 -0.0625 0.125 -0.1875 L 0.125 -0.75 C 0.125 -0.882812 0.222656 -0.953125 0.421875 -0.953125 C 2.585938 -1.046875 4.050781 -2.195312 4.8125 -4.40625 L 14.46875 -32.359375 C 14.476562 -32.390625 14.484375 -32.429688 14.484375 -32.484375 L 14.234375 -33.265625 C 14.234375 -33.335938 14.265625 -33.375 14.328125 -33.375 L 19.0625 -33.375 C 19.09375 -33.363281 19.132812 -33.347656 19.1875 -33.328125 C 19.238281 -33.316406 19.28125 -33.269531 19.3125 -33.1875 L 29.328125 -5.09375 C 29.546875 -4.664062 29.722656 -4.273438 29.859375 -3.921875 C 29.992188 -3.578125 30.148438 -3.265625 30.328125 -2.984375 C 30.703125 -2.335938 31.328125 -1.835938 32.203125 -1.484375 C 32.921875 -1.128906 33.582031 -0.953125 34.1875 -0.953125 C 34.3125 -0.953125 34.375 -0.878906 34.375 -0.734375 L 34.375 -0.1875 C 34.375 -0.0625 34.3125 0 34.1875 0 L 19.703125 0 C 19.566406 0 19.5 -0.0625 19.5 -0.1875 L 19.5 -0.75 C 19.5 -0.882812 19.789062 -0.96875 20.375 -1 C 20.96875 -1.03125 21.453125 -1.0625 21.828125 -1.09375 C 24.023438 -1.320312 25.125 -2.0625 25.125 -3.3125 C 25.125 -3.40625 25.109375 -3.515625 25.078125 -3.640625 L 21.5 -13.734375 C 21.476562 -13.765625 21.445312 -13.832031 21.40625 -13.9375 C 21.21875 -14.476562 20.882812 -14.75 20.40625 -14.75 L 12 -14.75 C 11.53125 -14.75 11.160156 -14.488281 10.890625 -13.96875 C 10.835938 -13.851562 10.8125 -13.789062 10.8125 -13.78125 L 7.265625 -3.390625 L 7.265625 -3.171875 C 7.265625 -2.765625 7.476562 -2.394531 7.90625 -2.0625 C 8.863281 -1.320312 10.160156 -0.953125 11.796875 -0.953125 L 12.40625 -0.953125 C 12.53125 -0.953125 12.59375 -0.882812 12.59375 -0.75 Z M 19.609375 -17.375 C 19.890625 -17.375 20.03125 -17.492188 20.03125 -17.734375 C 20.03125 -17.859375 20 -18 19.9375 -18.15625 L 16.40625 -27.859375 C 16.25 -28.285156 16.128906 -28.5 16.046875 -28.5 C 15.972656 -28.5 15.847656 -28.28125 15.671875 -27.84375 L 12.359375 -18.15625 C 12.296875 -18 12.265625 -17.828125 12.265625 -17.640625 C 12.265625 -17.460938 12.382812 -17.375 12.625 -17.375 Z M 19.609375 -17.375 "/></g></g></g><g fill="#c5c8cf" fill-opacity="1"><g transform="translate(308.283698, 231.135527)"><g><path d="M 12.453125 0 C 11.910156 0 11.640625 -0.15625 11.640625 -0.46875 L 11.640625 -0.703125 C 11.640625 -0.960938 11.875 -1.117188 12.34375 -1.171875 C 12.8125 -1.222656 13.113281 -1.257812 13.25 -1.28125 C 14.457031 -1.40625 15.304688 -1.695312 15.796875 -2.15625 C 16.285156 -2.625 16.53125 -3.328125 16.53125 -4.265625 L 16.53125 -12.09375 C 16.53125 -12.207031 16.503906 -12.328125 16.453125 -12.453125 L 6.765625 -27.890625 C 5.253906 -30.304688 3.753906 -31.691406 2.265625 -32.046875 C 2.191406 -32.066406 2.050781 -32.097656 1.84375 -32.140625 C 1.632812 -32.191406 1.175781 -32.273438 0.46875 -32.390625 C 0.21875 -32.429688 0.09375 -32.601562 0.09375 -32.90625 C 0.09375 -33.21875 0.210938 -33.375 0.453125 -33.375 L 13.984375 -33.375 C 14.253906 -33.375 14.390625 -33.21875 14.390625 -32.90625 C 14.390625 -32.59375 14.253906 -32.4375 13.984375 -32.4375 C 12.929688 -32.320312 12.234375 -32.210938 11.890625 -32.109375 C 11.097656 -31.816406 10.703125 -31.3125 10.703125 -30.59375 C 10.703125 -30.207031 10.796875 -29.863281 10.984375 -29.5625 L 18.984375 -16.78125 C 19.160156 -16.53125 19.265625 -16.367188 19.296875 -16.296875 C 19.335938 -16.222656 19.425781 -16.1875 19.5625 -16.1875 C 19.695312 -16.1875 19.90625 -16.414062 20.1875 -16.875 L 26.578125 -27.75 C 26.773438 -28.125 26.992188 -28.523438 27.234375 -28.953125 C 27.484375 -29.390625 27.609375 -29.835938 27.609375 -30.296875 C 27.609375 -31.453125 26.816406 -32.132812 25.234375 -32.34375 C 24.671875 -32.414062 24.363281 -32.5 24.3125 -32.59375 C 24.269531 -32.6875 24.25 -32.804688 24.25 -32.953125 C 24.25 -33.234375 24.378906 -33.375 24.640625 -33.375 L 35.703125 -33.375 C 35.921875 -33.375 36.03125 -33.265625 36.03125 -33.046875 C 36.03125 -32.828125 35.992188 -32.675781 35.921875 -32.59375 C 35.847656 -32.519531 35.753906 -32.460938 35.640625 -32.421875 C 35.523438 -32.378906 35.394531 -32.347656 35.25 -32.328125 C 35.101562 -32.304688 34.796875 -32.238281 34.328125 -32.125 C 33.222656 -31.851562 32.023438 -30.976562 30.734375 -29.5 C 30.585938 -29.320312 30.503906 -29.21875 30.484375 -29.1875 L 21.140625 -13.09375 L 21.140625 -4.265625 C 21.140625 -3.410156 21.378906 -2.738281 21.859375 -2.25 C 22.335938 -1.757812 23.148438 -1.4375 24.296875 -1.28125 C 25.441406 -1.132812 26.015625 -0.953125 26.015625 -0.734375 L 26.015625 -0.46875 C 26.015625 -0.15625 25.75 0 25.21875 0 Z M 12.453125 0 "/></g></g></g><g clip-path="url(#8171090e1b)"><path fill="#c5c8cf" d="M 188.707031 121.546875 C 190.113281 121.546875 191.625 119.707031 192.441406 112.210938 C 193.253906 104.714844 190.554688 104.117188 188.707031 104.117188 C 186.859375 104.117188 184.160156 104.714844 184.972656 112.210938 C 185.785156 119.707031 187.300781 121.546875 188.707031 121.546875 Z M 188.707031 121.546875 " fill-opacity="1" fill-rule="nonzero"/></g><path fill="#c5c8cf" d="M 167.710938 136.964844 C 171.609375 140.09375 172.851562 140.90625 173.582031 145.617188 C 174.308594 150.328125 174.949219 152.683594 176.964844 155.683594 C 178.976562 158.679688 179.78125 160.761719 180.5 163.054688 C 181.242188 165.429688 183.320312 166.046875 183.695312 163.535156 C 184.253906 159.820312 182.0625 154.953125 180.988281 152.726562 C 179.917969 150.5 180.21875 147.289062 179.917969 142.664062 C 179.621094 138.039062 175.164062 133.15625 169.46875 128.914062 C 163.773438 124.675781 164.414062 120.390625 164.242188 118.765625 C 164.074219 117.136719 162.359375 117.394531 162.359375 117.394531 C 159.960938 117.863281 158.160156 120.390625 159.359375 125.574219 C 160.558594 130.757812 163.816406 133.839844 167.710938 136.964844 Z M 167.710938 136.964844 " fill-opacity="1" fill-rule="nonzero"/><path fill="#c5c8cf" d="M 144.898438 156.121094 C 149.828125 157.929688 152.332031 159.324219 155.003906 162.980469 C 157.675781 166.636719 159.5625 172.144531 165.273438 175.347656 C 170.984375 178.550781 176.738281 176.867188 177.3125 170.664062 C 177.886719 164.460938 173.039062 156.3125 167.207031 150.667969 C 161.371094 145.027344 155.742188 138.042969 153.03125 133.894531 C 150.320312 129.742188 148.222656 123.785156 143.375 124.402344 C 141.226562 124.675781 138.570312 128.878906 144.035156 136.359375 C 149.5 143.835938 155.414062 147.738281 159.851562 152.21875 C 164.289062 156.695312 170.039062 160.679688 171.683594 165.527344 C 173.328125 170.375 172.09375 172.511719 169.753906 172.347656 C 167.410156 172.183594 164.289062 168.773438 160.714844 163.226562 C 157.140625 157.679688 154.757812 150.550781 148.308594 146.84375 C 141.855469 143.136719 135.199219 144.535156 133.96875 147.945312 C 132.734375 151.355469 139.964844 154.3125 144.898438 156.121094 Z M 144.898438 156.121094 " fill-opacity="1" fill-rule="nonzero"/><path fill="#c5c8cf" d="M 244.179688 158.296875 C 226.457031 157.722656 217.632812 180.71875 204.859375 180.4375 C 197.066406 180.265625 193.296875 173.84375 191.667969 165.191406 C 190.042969 156.539062 192.140625 151.144531 192.867188 144.546875 C 193.597656 137.953125 194.921875 135.167969 196.765625 132.339844 C 198.605469 129.515625 202.203125 125.832031 204.304688 119.835938 C 206.402344 113.839844 204.886719 108.332031 201.605469 108.226562 C 200.277344 108.183594 199.292969 109.683594 198.523438 111.953125 C 197.75 114.222656 195.007812 121.078125 193.46875 124.71875 C 191.925781 128.359375 188.707031 137.566406 188.707031 137.566406 C 188.707031 137.566406 185.488281 128.359375 183.945312 124.71875 C 182.402344 121.078125 179.664062 114.222656 178.890625 111.953125 C 178.121094 109.683594 177.136719 108.183594 175.808594 108.226562 C 172.523438 108.332031 171.011719 113.839844 173.109375 119.835938 C 175.207031 125.832031 178.804688 129.515625 180.648438 132.339844 C 182.488281 135.167969 183.816406 137.953125 184.546875 144.546875 C 185.273438 151.144531 187.371094 156.539062 185.746094 165.191406 C 184.117188 173.84375 180.347656 180.265625 172.550781 180.4375 C 159.886719 180.71875 150.800781 157.726562 133.234375 158.296875 C 125.3125 158.550781 125.609375 163.007812 128.480469 164.976562 C 131.351562 166.949219 138.117188 168.703125 145.65625 173.113281 C 153.195312 177.527344 160.304688 181.851562 165.65625 183.90625 C 171.011719 185.964844 181.605469 187.546875 188.707031 177.910156 C 195.808594 187.546875 206.402344 185.964844 211.753906 183.90625 C 217.109375 181.851562 224.21875 177.527344 231.757812 173.113281 C 239.296875 168.703125 246.0625 166.949219 248.933594 164.976562 C 251.800781 163.007812 252.101562 158.550781 244.179688 158.296875 Z M 244.179688 158.296875 " fill-opacity="1" fill-rule="nonzero"/><path fill="#c5c8cf" d="M 197.492188 142.664062 C 197.195312 147.289062 197.492188 150.5 196.421875 152.726562 C 190.578125 164.882812 195.449219 167.734375 196.914062 163.054688 C 197.628906 160.761719 198.4375 158.679688 200.449219 155.683594 C 202.460938 152.683594 203.105469 150.328125 203.832031 145.617188 C 204.558594 140.90625 205.800781 140.09375 209.699219 136.964844 C 213.597656 133.839844 216.851562 130.757812 218.050781 125.574219 C 219.25 120.390625 217.453125 117.863281 215.054688 117.394531 C 215.054688 117.394531 213.339844 117.136719 213.167969 118.765625 C 212.996094 120.390625 213.640625 124.675781 207.945312 128.914062 C 202.246094 133.15625 197.792969 138.039062 197.492188 142.664062 Z M 197.492188 142.664062 " fill-opacity="1" fill-rule="nonzero"/><path fill="#c5c8cf" d="M 210.207031 150.667969 C 204.371094 156.3125 199.523438 164.460938 200.101562 170.664062 C 200.675781 176.867188 206.425781 178.550781 212.136719 175.347656 C 217.847656 172.144531 219.738281 166.636719 222.410156 162.980469 C 225.078125 159.324219 227.585938 157.929688 232.515625 156.121094 C 237.445312 154.3125 244.675781 151.355469 243.445312 147.945312 C 242.210938 144.535156 235.554688 143.136719 229.105469 146.84375 C 222.65625 150.550781 220.273438 157.679688 216.699219 163.226562 C 213.125 168.773438 210 172.183594 207.660156 172.347656 C 205.316406 172.511719 204.085938 170.375 205.730469 165.527344 C 208.09375 158.550781 225.964844 146.5 233.378906 136.359375 C 238.84375 128.878906 236.1875 124.675781 234.035156 124.402344 C 229.1875 123.785156 227.09375 129.742188 224.382812 133.894531 C 221.667969 138.042969 216.042969 145.027344 210.207031 150.667969 Z M 210.207031 150.667969 " fill-opacity="1" fill-rule="nonzero"/></svg>