<svg xmlns="http://www.w3.org/2000/svg" xmlns:xlink="http://www.w3.org/1999/xlink" width="500" zoomAndPan="magnify" viewBox="0 0 375 374.999991" height="500" preserveAspectRatio="xMidYMid meet" version="1.0"><defs><clipPath id="57178acd50"><path d="M 45.386719 72.070312 L 329.464844 72.070312 L 329.464844 302.945312 L 45.386719 302.945312 Z M 45.386719 72.070312 " clip-rule="nonzero"/></clipPath></defs><g clip-path="url(#57178acd50)"><path fill="#bc9c22" d="M 207.640625 207.828125 C 199.808594 210.066406 193.097656 205.230469 187.5 205.230469 C 181.902344 205.230469 175.183594 210.066406 167.359375 207.828125 C 159.523438 205.589844 124.074219 194.402344 137.144531 183.613281 C 150.214844 172.78125 187.5 173.542969 187.5 173.542969 C 187.5 173.542969 224.785156 172.78125 237.855469 183.613281 C 250.921875 194.402344 215.476562 205.589844 207.640625 207.828125 Z M 313.589844 112.710938 C 307.234375 119.828125 279.253906 155.238281 273.304688 177.257812 C 267.308594 199.28125 253.519531 166.652344 238.972656 155.460938 C 224.429688 144.269531 201.464844 144.269531 187.5 144.269531 C 173.535156 144.269531 150.574219 144.269531 136.027344 155.460938 C 121.476562 166.652344 107.695312 199.28125 101.695312 177.257812 C 95.742188 155.238281 67.769531 119.828125 61.410156 112.710938 C 55.101562 105.640625 45.386719 72.070312 45.386719 72.070312 C 45.386719 72.070312 45.96875 130.257812 52.097656 144.269531 L 53.578125 144.269531 C 53.578125 144.269531 63.871094 200.578125 73.359375 217.722656 L 74.347656 216.691406 C 74.347656 216.691406 108.050781 267.359375 122.058594 277.386719 C 136.027344 287.503906 165.117188 300.347656 187.5 302.945312 C 209.878906 300.347656 238.972656 287.503906 252.941406 277.386719 C 266.949219 267.359375 300.65625 216.691406 300.65625 216.691406 L 301.636719 217.722656 C 311.128906 200.578125 321.421875 144.269531 321.421875 144.269531 L 322.898438 144.269531 C 329.035156 130.257812 329.613281 72.070312 329.613281 72.070312 C 329.613281 72.070312 319.902344 105.640625 313.589844 112.710938 " fill-opacity="1" fill-rule="nonzero"/></g></svg>