<svg xmlns="http://www.w3.org/2000/svg" xmlns:xlink="http://www.w3.org/1999/xlink" width="500" zoomAndPan="magnify" viewBox="0 0 375 374.999991" height="500" preserveAspectRatio="xMidYMid meet" version="1.0"><defs><clipPath id="9bcf696951"><path d="M 105 72.628906 L 307 72.628906 L 307 302.128906 L 105 302.128906 Z M 105 72.628906 " clip-rule="nonzero"/></clipPath></defs><g clip-path="url(#9bcf696951)"><path fill="#bc9c22" d="M 304.824219 196.855469 C 292.210938 172.910156 284.128906 157.527344 282.757812 154.859375 C 282.144531 97.234375 255.613281 72.628906 194.136719 72.628906 C 141.128906 72.628906 105.511719 105.886719 105.511719 155.386719 C 105.511719 183.742188 116.71875 198.117188 127.554688 212.015625 C 137.316406 224.539062 146.542969 236.371094 146.53125 258.050781 L 146.53125 300.167969 C 146.53125 300.460938 146.585938 300.742188 146.699219 301.007812 C 146.8125 301.277344 146.96875 301.515625 147.175781 301.722656 C 147.382812 301.929688 147.621094 302.085938 147.890625 302.199219 C 148.160156 302.308594 148.441406 302.367188 148.730469 302.367188 C 149.023438 302.367188 149.304688 302.308594 149.574219 302.199219 C 149.84375 302.085938 150.082031 301.929688 150.289062 301.722656 C 150.492188 301.515625 150.652344 301.277344 150.765625 301.007812 C 150.878906 300.742188 150.933594 300.460938 150.933594 300.167969 L 150.933594 258.050781 C 150.933594 255.519531 150.796875 253.128906 150.566406 250.828125 C 156.34375 209.71875 173.992188 194.808594 180.171875 190.769531 C 180.652344 192.476562 180.988281 194.210938 181.179688 195.972656 C 181.933594 203.394531 187.40625 208.777344 194.195312 208.777344 C 195.296875 208.78125 196.378906 208.644531 197.445312 208.375 C 198.511719 208.101562 199.527344 207.699219 200.488281 207.167969 C 201.453125 206.636719 202.335938 205.992188 203.132812 205.238281 C 203.933594 204.484375 204.625 203.640625 205.210938 202.710938 C 205.359375 202.464844 205.449219 202.199219 205.492188 201.917969 C 205.535156 201.632812 205.523438 201.355469 205.457031 201.078125 C 205.386719 200.796875 205.269531 200.542969 205.105469 200.3125 C 204.9375 200.078125 204.734375 199.886719 204.492188 199.734375 C 204.25 199.582031 203.992188 199.480469 203.710938 199.429688 C 203.429688 199.378906 203.148438 199.382812 202.867188 199.441406 C 202.589844 199.496094 202.332031 199.605469 202.09375 199.765625 C 201.855469 199.925781 201.65625 200.121094 201.496094 200.359375 C 201.109375 200.976562 200.648438 201.535156 200.121094 202.035156 C 199.589844 202.535156 199.003906 202.960938 198.367188 203.3125 C 197.726562 203.664062 197.054688 203.929688 196.347656 204.109375 C 195.644531 204.292969 194.925781 204.378906 194.195312 204.378906 C 189.636719 204.378906 186.082031 200.742188 185.554688 195.527344 C 184.949219 189.574219 182.789062 184.519531 180.882812 180.058594 C 179.222656 176.171875 177.789062 172.8125 177.789062 169.847656 C 177.789062 169.003906 177.871094 168.164062 178.039062 167.335938 C 178.203125 166.507812 178.445312 165.703125 178.769531 164.921875 C 179.09375 164.140625 179.488281 163.398438 179.960938 162.695312 C 180.429688 161.992188 180.960938 161.34375 181.558594 160.746094 C 182.15625 160.148438 182.808594 159.613281 183.511719 159.144531 C 184.214844 158.675781 184.957031 158.277344 185.738281 157.953125 C 186.515625 157.632812 187.320312 157.386719 188.152344 157.222656 C 188.980469 157.058594 189.816406 156.976562 190.664062 156.976562 C 191.507812 156.976562 192.34375 157.058594 193.175781 157.222656 C 194.003906 157.386719 194.808594 157.632812 195.589844 157.953125 C 196.371094 158.277344 197.113281 158.675781 197.8125 159.144531 C 198.515625 159.613281 199.167969 160.148438 199.765625 160.746094 C 200.363281 161.34375 200.894531 161.992188 201.367188 162.695312 C 201.835938 163.398438 202.230469 164.140625 202.554688 164.921875 C 202.878906 165.703125 203.125 166.507812 203.289062 167.335938 C 203.453125 168.164062 203.535156 169.003906 203.535156 169.847656 C 203.535156 170.140625 203.589844 170.421875 203.703125 170.691406 C 203.816406 170.960938 203.972656 171.199219 204.179688 171.40625 C 204.386719 171.609375 204.625 171.769531 204.894531 171.882812 C 205.164062 171.992188 205.445312 172.050781 205.738281 172.050781 C 206.027344 172.050781 206.308594 171.992188 206.578125 171.882812 C 206.847656 171.769531 207.085938 171.609375 207.292969 171.40625 C 207.5 171.199219 207.660156 170.960938 207.769531 170.691406 C 207.882812 170.421875 207.9375 170.140625 207.9375 169.847656 C 207.9375 168.910156 207.859375 167.980469 207.707031 167.058594 C 207.554688 166.136719 207.328125 165.230469 207.027344 164.34375 C 206.726562 163.457031 206.359375 162.601562 205.921875 161.773438 C 205.480469 160.949219 204.980469 160.160156 204.414062 159.417969 C 203.847656 158.671875 203.222656 157.976562 202.542969 157.332031 C 201.863281 156.691406 201.136719 156.105469 200.363281 155.578125 C 199.589844 155.054688 198.777344 154.59375 197.929688 154.199219 C 197.078125 153.804688 196.203125 153.480469 195.304688 153.230469 C 197.90625 150.066406 201.136719 144.617188 201.597656 136.636719 C 201.960938 130.285156 200.300781 125.339844 196.667969 121.921875 C 188.015625 113.816406 170.261719 115.980469 153.113281 118.070312 C 137.351562 119.984375 122.4375 121.804688 120.367188 114.605469 C 122.332031 111.238281 124.566406 108.054688 127.066406 105.058594 C 127.769531 105.652344 128.585938 105.949219 129.503906 105.953125 C 129.882812 105.957031 130.253906 105.902344 130.613281 105.796875 C 130.976562 105.691406 131.316406 105.535156 131.632812 105.328125 C 131.945312 105.121094 132.226562 104.875 132.46875 104.585938 C 132.710938 104.296875 132.90625 103.976562 133.054688 103.628906 C 133.203125 103.28125 133.296875 102.921875 133.339844 102.546875 C 133.382812 102.171875 133.367188 101.800781 133.300781 101.429688 C 133.230469 101.058594 133.109375 100.703125 132.9375 100.367188 C 132.765625 100.035156 132.546875 99.730469 132.285156 99.460938 C 143.109375 89.046875 157.457031 81.875 174.4375 78.773438 C 174.550781 79.226562 174.742188 79.648438 175.007812 80.035156 C 175.277344 80.417969 175.601562 80.742188 175.988281 81.007812 C 176.375 81.273438 176.796875 81.460938 177.253906 81.574219 C 177.707031 81.683594 178.167969 81.710938 178.632812 81.652344 C 179.097656 81.59375 179.539062 81.457031 179.953125 81.238281 C 180.367188 81.019531 180.730469 80.734375 181.039062 80.382812 C 181.351562 80.03125 181.589844 79.636719 181.753906 79.195312 C 181.921875 78.757812 182.003906 78.304688 182 77.835938 C 182 77.785156 181.988281 77.734375 181.988281 77.683594 C 186.023438 77.25 190.074219 77.03125 194.136719 77.03125 C 253.515625 77.03125 277.917969 99.738281 278.375 155.414062 C 278.375 156.074219 278.375 156.074219 300.941406 198.910156 C 302.253906 201.398438 302.371094 202.867188 302.046875 203.414062 C 301.695312 203.988281 300.386719 204.351562 298.535156 204.371094 C 292.257812 204.425781 280.699219 204.371094 280.582031 204.371094 C 279.976562 204.371094 279.453125 204.585938 279.023438 205.011719 C 278.589844 205.441406 278.375 205.960938 278.375 206.570312 L 278.375 244.898438 C 278.375 250.945312 273.027344 255.863281 266.453125 255.863281 L 220.085938 255.863281 C 205.933594 255.863281 199.617188 249.777344 199.617188 236.128906 L 199.617188 222.265625 C 199.617188 221.972656 199.5625 221.691406 199.449219 221.421875 C 199.339844 221.152344 199.179688 220.914062 198.972656 220.707031 C 198.765625 220.503906 198.527344 220.34375 198.257812 220.230469 C 197.988281 220.121094 197.707031 220.0625 197.417969 220.0625 C 197.125 220.0625 196.84375 220.121094 196.574219 220.230469 C 196.304688 220.34375 196.066406 220.503906 195.859375 220.707031 C 195.652344 220.914062 195.496094 221.152344 195.382812 221.421875 C 195.269531 221.691406 195.214844 221.972656 195.214844 222.265625 L 195.214844 236.121094 C 195.214844 252.136719 203.582031 260.246094 220.082031 260.246094 L 239.203125 260.246094 L 239.203125 300.15625 C 239.203125 300.449219 239.257812 300.730469 239.371094 301 C 239.480469 301.269531 239.640625 301.507812 239.847656 301.714844 C 240.054688 301.921875 240.289062 302.078125 240.5625 302.191406 C 240.832031 302.304688 241.109375 302.359375 241.402344 302.359375 C 241.695312 302.359375 241.976562 302.304688 242.246094 302.191406 C 242.515625 302.078125 242.753906 301.921875 242.960938 301.714844 C 243.167969 301.507812 243.324219 301.269531 243.4375 301 C 243.550781 300.730469 243.605469 300.449219 243.605469 300.15625 L 243.605469 260.246094 L 266.4375 260.246094 C 275.4375 260.246094 282.757812 253.351562 282.757812 244.882812 L 282.757812 208.765625 C 286.453125 208.777344 293.929688 208.796875 298.5625 208.765625 C 302.160156 208.734375 304.597656 207.695312 305.808594 205.671875 C 307.117188 203.476562 306.796875 200.597656 304.824219 196.855469 Z M 153.644531 122.433594 C 169.050781 120.558594 186.507812 118.429688 193.65625 125.132812 C 196.335938 127.644531 197.496094 131.328125 197.207031 136.390625 C 196.65625 146.015625 191.441406 151.234375 189.832031 152.625 C 188.734375 152.679688 187.652344 152.835938 186.585938 153.09375 C 185.519531 153.355469 184.488281 153.710938 183.488281 154.167969 C 182.488281 154.625 181.542969 155.171875 180.648438 155.808594 C 179.753906 156.445312 178.929688 157.160156 178.171875 157.957031 C 177.414062 158.75 176.734375 159.609375 176.140625 160.53125 C 175.546875 161.457031 175.046875 162.425781 174.636719 163.445312 C 174.226562 164.464844 173.917969 165.515625 173.710938 166.589844 C 173.5 167.667969 173.394531 168.757812 173.394531 169.855469 C 173.394531 173.722656 175.070312 177.644531 176.839844 181.792969 C 177.472656 183.277344 178.132812 184.832031 178.753906 186.449219 C 173.078125 189.769531 156.039062 202.519531 148.242188 238.828125 C 144.570312 226.703125 137.714844 217.90625 131.015625 209.320312 C 120.636719 196.007812 109.90625 182.238281 109.90625 155.394531 C 109.90625 141.980469 112.6875 129.835938 117.828125 119.316406 C 123.226562 126.132812 138.070312 124.332031 153.644531 122.433594 Z M 153.644531 122.433594 " fill-opacity="1" fill-rule="nonzero"/></g><path fill="#bc9c22" d="M 151.519531 94.789062 C 151.519531 95.300781 151.617188 95.789062 151.8125 96.261719 C 152.007812 96.734375 152.285156 97.148438 152.648438 97.511719 C 153.007812 97.871094 153.421875 98.148438 153.894531 98.34375 C 154.367188 98.539062 154.859375 98.636719 155.367188 98.636719 C 155.878906 98.636719 156.367188 98.539062 156.839844 98.34375 C 157.3125 98.148438 157.726562 97.871094 158.089844 97.511719 C 158.449219 97.148438 158.726562 96.734375 158.921875 96.261719 C 159.117188 95.789062 159.214844 95.300781 159.214844 94.789062 C 159.214844 94.28125 159.117188 93.789062 158.921875 93.316406 C 158.726562 92.847656 158.449219 92.429688 158.089844 92.070312 C 157.726562 91.707031 157.3125 91.429688 156.839844 91.234375 C 156.367188 91.039062 155.878906 90.941406 155.367188 90.941406 C 154.859375 90.941406 154.367188 91.039062 153.894531 91.234375 C 153.425781 91.429688 153.007812 91.710938 152.648438 92.070312 C 152.289062 92.429688 152.007812 92.847656 151.8125 93.316406 C 151.617188 93.789062 151.519531 94.28125 151.519531 94.789062 Z M 151.519531 94.789062 " fill-opacity="1" fill-rule="nonzero"/><path fill="#bc9c22" d="M 214.898438 82.21875 C 214.386719 82.21875 213.898438 82.316406 213.425781 82.511719 C 212.953125 82.707031 212.539062 82.984375 212.175781 83.34375 C 211.816406 83.707031 211.539062 84.121094 211.34375 84.59375 C 211.148438 85.066406 211.050781 85.554688 211.050781 86.066406 C 211.050781 86.574219 211.148438 87.066406 211.34375 87.539062 C 211.539062 88.007812 211.816406 88.425781 212.175781 88.785156 C 212.539062 89.148438 212.953125 89.425781 213.425781 89.621094 C 213.898438 89.816406 214.386719 89.914062 214.898438 89.914062 C 215.40625 89.914062 215.898438 89.816406 216.371094 89.621094 C 216.839844 89.425781 217.257812 89.148438 217.617188 88.785156 C 217.980469 88.425781 218.257812 88.007812 218.453125 87.539062 C 218.648438 87.066406 218.746094 86.574219 218.746094 86.066406 C 218.746094 85.554688 218.648438 85.066406 218.453125 84.59375 C 218.257812 84.121094 217.976562 83.707031 217.617188 83.347656 C 217.257812 82.984375 216.839844 82.707031 216.371094 82.511719 C 215.898438 82.316406 215.40625 82.21875 214.898438 82.21875 Z M 214.898438 82.21875 " fill-opacity="1" fill-rule="nonzero"/><path fill="#bc9c22" d="M 245.109375 96.4375 C 245.109375 95.929688 245.011719 95.4375 244.816406 94.964844 C 244.621094 94.496094 244.339844 94.078125 243.980469 93.71875 C 243.621094 93.355469 243.203125 93.078125 242.730469 92.882812 C 242.261719 92.6875 241.769531 92.589844 241.257812 92.589844 C 240.75 92.589844 240.257812 92.6875 239.789062 92.882812 C 239.316406 93.078125 238.898438 93.355469 238.539062 93.71875 C 238.179688 94.078125 237.898438 94.496094 237.703125 94.964844 C 237.507812 95.4375 237.410156 95.929688 237.410156 96.4375 C 237.410156 96.949219 237.507812 97.4375 237.703125 97.910156 C 237.898438 98.382812 238.179688 98.796875 238.539062 99.160156 C 238.898438 99.519531 239.316406 99.796875 239.789062 99.992188 C 240.257812 100.1875 240.75 100.285156 241.257812 100.285156 C 241.769531 100.285156 242.261719 100.1875 242.730469 99.992188 C 243.203125 99.796875 243.617188 99.519531 243.980469 99.15625 C 244.339844 98.796875 244.617188 98.382812 244.8125 97.910156 C 245.007812 97.4375 245.105469 96.949219 245.109375 96.4375 Z M 245.109375 96.4375 " fill-opacity="1" fill-rule="nonzero"/><path fill="#bc9c22" d="M 222.042969 104.542969 C 222.042969 104.03125 221.945312 103.539062 221.75 103.070312 C 221.554688 102.597656 221.277344 102.183594 220.914062 101.820312 C 220.554688 101.460938 220.136719 101.183594 219.667969 100.988281 C 219.195312 100.792969 218.703125 100.695312 218.195312 100.695312 C 217.683594 100.695312 217.191406 100.792969 216.722656 100.988281 C 216.25 101.183594 215.835938 101.460938 215.472656 101.820312 C 215.113281 102.183594 214.835938 102.597656 214.640625 103.070312 C 214.445312 103.539062 214.347656 104.03125 214.347656 104.542969 C 214.347656 105.050781 214.445312 105.542969 214.640625 106.015625 C 214.835938 106.484375 215.113281 106.902344 215.472656 107.261719 C 215.835938 107.625 216.25 107.902344 216.722656 108.097656 C 217.191406 108.292969 217.683594 108.390625 218.195312 108.390625 C 218.703125 108.390625 219.195312 108.292969 219.667969 108.097656 C 220.136719 107.902344 220.554688 107.621094 220.914062 107.261719 C 221.273438 106.902344 221.554688 106.484375 221.75 106.015625 C 221.945312 105.542969 222.042969 105.050781 222.042969 104.542969 Z M 222.042969 104.542969 " fill-opacity="1" fill-rule="nonzero"/><path fill="#bc9c22" d="M 232.378906 116.8125 C 232.378906 117.320312 232.476562 117.8125 232.671875 118.285156 C 232.867188 118.753906 233.148438 119.171875 233.507812 119.53125 C 233.867188 119.894531 234.285156 120.171875 234.757812 120.367188 C 235.226562 120.5625 235.71875 120.660156 236.230469 120.660156 C 236.738281 120.660156 237.230469 120.5625 237.699219 120.367188 C 238.171875 120.171875 238.589844 119.894531 238.949219 119.53125 C 239.308594 119.171875 239.589844 118.753906 239.785156 118.285156 C 239.980469 117.8125 240.078125 117.320312 240.078125 116.8125 C 240.078125 116.300781 239.980469 115.8125 239.785156 115.339844 C 239.589844 114.867188 239.308594 114.453125 238.949219 114.089844 C 238.589844 113.730469 238.171875 113.453125 237.699219 113.257812 C 237.230469 113.0625 236.738281 112.964844 236.230469 112.964844 C 235.71875 112.964844 235.226562 113.0625 234.757812 113.257812 C 234.285156 113.453125 233.871094 113.730469 233.507812 114.09375 C 233.148438 114.453125 232.871094 114.867188 232.675781 115.339844 C 232.480469 115.8125 232.382812 116.300781 232.378906 116.8125 Z M 232.378906 116.8125 " fill-opacity="1" fill-rule="nonzero"/><path fill="#bc9c22" d="M 212.699219 145.917969 C 212.699219 146.429688 212.796875 146.921875 212.992188 147.390625 C 213.1875 147.863281 213.464844 148.28125 213.824219 148.640625 C 214.1875 149 214.601562 149.277344 215.074219 149.472656 C 215.546875 149.667969 216.035156 149.765625 216.546875 149.765625 C 217.054688 149.765625 217.546875 149.667969 218.019531 149.472656 C 218.488281 149.277344 218.90625 149 219.265625 148.640625 C 219.628906 148.28125 219.90625 147.863281 220.101562 147.390625 C 220.296875 146.921875 220.394531 146.429688 220.394531 145.917969 C 220.394531 145.410156 220.296875 144.917969 220.101562 144.445312 C 219.90625 143.976562 219.628906 143.558594 219.265625 143.199219 C 218.90625 142.835938 218.488281 142.558594 218.019531 142.363281 C 217.546875 142.167969 217.054688 142.070312 216.546875 142.070312 C 216.035156 142.070312 215.546875 142.167969 215.074219 142.363281 C 214.601562 142.558594 214.1875 142.839844 213.828125 143.199219 C 213.464844 143.558594 213.1875 143.976562 212.992188 144.445312 C 212.796875 144.917969 212.699219 145.410156 212.699219 145.917969 Z M 212.699219 145.917969 " fill-opacity="1" fill-rule="nonzero"/><path fill="#bc9c22" d="M 208.148438 124.519531 C 208.144531 125.03125 208.242188 125.519531 208.4375 125.992188 C 208.632812 126.464844 208.910156 126.882812 209.269531 127.242188 C 209.628906 127.605469 210.042969 127.886719 210.515625 128.082031 C 210.988281 128.277344 211.476562 128.375 211.988281 128.378906 C 212.5 128.378906 212.988281 128.28125 213.460938 128.085938 C 213.933594 127.890625 214.351562 127.613281 214.710938 127.253906 C 215.074219 126.894531 215.351562 126.476562 215.546875 126.007812 C 215.746094 125.535156 215.84375 125.042969 215.84375 124.535156 C 215.84375 124.023438 215.746094 123.53125 215.550781 123.058594 C 215.355469 122.589844 215.078125 122.171875 214.71875 121.808594 C 214.359375 121.449219 213.941406 121.171875 213.46875 120.976562 C 213 120.777344 212.507812 120.679688 211.996094 120.679688 C 211.488281 120.679688 210.996094 120.777344 210.527344 120.972656 C 210.054688 121.167969 209.640625 121.445312 209.28125 121.804688 C 208.917969 122.164062 208.640625 122.578125 208.445312 123.050781 C 208.25 123.519531 208.148438 124.011719 208.148438 124.519531 Z M 208.148438 124.519531 " fill-opacity="1" fill-rule="nonzero"/><path fill="#bc9c22" d="M 190.832031 94.789062 C 190.832031 95.300781 190.929688 95.789062 191.125 96.261719 C 191.320312 96.734375 191.597656 97.148438 191.957031 97.511719 C 192.320312 97.871094 192.734375 98.148438 193.207031 98.34375 C 193.679688 98.539062 194.167969 98.636719 194.679688 98.636719 C 195.1875 98.636719 195.679688 98.539062 196.152344 98.34375 C 196.625 98.148438 197.039062 97.871094 197.398438 97.511719 C 197.761719 97.148438 198.039062 96.734375 198.234375 96.261719 C 198.429688 95.789062 198.527344 95.300781 198.527344 94.789062 C 198.527344 94.28125 198.429688 93.789062 198.234375 93.316406 C 198.039062 92.847656 197.761719 92.429688 197.398438 92.070312 C 197.039062 91.707031 196.625 91.429688 196.152344 91.234375 C 195.679688 91.039062 195.1875 90.941406 194.679688 90.941406 C 194.167969 90.941406 193.679688 91.039062 193.207031 91.234375 C 192.734375 91.429688 192.320312 91.710938 191.960938 92.070312 C 191.597656 92.429688 191.320312 92.847656 191.125 93.316406 C 190.929688 93.789062 190.832031 94.28125 190.832031 94.789062 Z M 190.832031 94.789062 " fill-opacity="1" fill-rule="nonzero"/><path fill="#bc9c22" d="M 171.738281 104.542969 C 171.738281 105.050781 171.832031 105.542969 172.027344 106.015625 C 172.222656 106.484375 172.503906 106.902344 172.863281 107.261719 C 173.222656 107.625 173.640625 107.902344 174.113281 108.097656 C 174.582031 108.292969 175.074219 108.390625 175.585938 108.390625 C 176.09375 108.390625 176.585938 108.292969 177.058594 108.097656 C 177.527344 107.902344 177.945312 107.625 178.304688 107.261719 C 178.667969 106.902344 178.945312 106.484375 179.140625 106.015625 C 179.335938 105.542969 179.433594 105.050781 179.433594 104.542969 C 179.433594 104.03125 179.335938 103.539062 179.140625 103.070312 C 178.945312 102.597656 178.667969 102.183594 178.304688 101.820312 C 177.945312 101.460938 177.527344 101.183594 177.058594 100.988281 C 176.585938 100.792969 176.09375 100.695312 175.585938 100.695312 C 175.074219 100.695312 174.582031 100.792969 174.113281 100.988281 C 173.640625 101.183594 173.226562 101.460938 172.863281 101.820312 C 172.503906 102.183594 172.226562 102.597656 172.03125 103.070312 C 171.835938 103.542969 171.738281 104.03125 171.738281 104.542969 Z M 171.738281 104.542969 " fill-opacity="1" fill-rule="nonzero"/><path fill="#bc9c22" d="M 102.078125 99.328125 L 101.605469 101.457031 C 101.542969 101.742188 101.535156 102.027344 101.585938 102.3125 C 101.636719 102.601562 101.742188 102.867188 101.898438 103.113281 C 102.054688 103.359375 102.253906 103.566406 102.492188 103.734375 C 102.730469 103.898438 102.992188 104.015625 103.277344 104.078125 C 103.433594 104.113281 103.59375 104.128906 103.753906 104.128906 C 104.003906 104.128906 104.246094 104.089844 104.484375 104.003906 C 104.71875 103.921875 104.933594 103.800781 105.128906 103.644531 C 105.324219 103.488281 105.488281 103.304688 105.617188 103.09375 C 105.75 102.878906 105.84375 102.652344 105.898438 102.40625 L 108.386719 91.191406 C 108.480469 90.785156 108.457031 90.382812 108.320312 89.988281 C 108.1875 89.59375 107.957031 89.265625 107.632812 89 C 107.308594 88.738281 106.941406 88.578125 106.527344 88.527344 C 106.113281 88.472656 105.714844 88.53125 105.335938 88.703125 L 94.871094 93.453125 C 94.605469 93.570312 94.371094 93.738281 94.171875 93.949219 C 93.972656 94.164062 93.820312 94.40625 93.71875 94.679688 C 93.613281 94.953125 93.566406 95.234375 93.578125 95.523438 C 93.585938 95.816406 93.652344 96.09375 93.769531 96.363281 C 93.890625 96.628906 94.058594 96.859375 94.269531 97.058594 C 94.484375 97.257812 94.726562 97.410156 95 97.511719 C 95.273438 97.617188 95.554688 97.664062 95.847656 97.652344 C 96.136719 97.644531 96.417969 97.578125 96.683594 97.457031 L 98.660156 96.558594 C 67.867188 136.84375 70.8125 180.695312 107.507812 227.046875 C 107.691406 227.269531 107.910156 227.449219 108.164062 227.589844 C 108.417969 227.726562 108.6875 227.8125 108.972656 227.84375 C 109.261719 227.875 109.542969 227.851562 109.820312 227.769531 C 110.097656 227.691406 110.351562 227.5625 110.578125 227.382812 C 110.804688 227.203125 110.988281 226.988281 111.128906 226.734375 C 111.269531 226.484375 111.359375 226.214844 111.394531 225.925781 C 111.429688 225.640625 111.410156 225.359375 111.332031 225.078125 C 111.257812 224.800781 111.128906 224.546875 110.953125 224.316406 C 75.730469 179.835938 72.777344 137.832031 102.078125 99.328125 Z M 102.078125 99.328125 " fill-opacity="1" fill-rule="nonzero"/></svg>