<svg xmlns="http://www.w3.org/2000/svg" xmlns:xlink="http://www.w3.org/1999/xlink" width="500" zoomAndPan="magnify" viewBox="0 0 375 374.999991" height="500" preserveAspectRatio="xMidYMid meet" version="1.0"><defs><clipPath id="0e65295ebe"><path d="M 50 257 L 325 257 L 325 320.144531 L 50 320.144531 Z M 50 257 " clip-rule="nonzero"/></clipPath></defs><rect x="-37.5" width="450" fill="#ffffff" y="-37.499999" height="449.999989" fill-opacity="1"/><rect x="-37.5" width="450" fill="#bc9c22" y="-37.499999" height="449.999989" fill-opacity="1"/><path fill="#ffffff" d="M 286.9375 196.363281 C 274.351562 222.789062 262.242188 254.90625 262.242188 280.730469 C 262.242188 290 264.179688 301.054688 273.410156 301.054688 C 276.292969 301.054688 280.15625 300.132812 280.15625 292.109375 C 280.15625 288.304688 279.0625 286.703125 277.574219 284.480469 C 275.351562 281.164062 272.5625 277.058594 272.5625 265.585938 C 272.5625 242.90625 279.214844 217.855469 286.9375 196.363281 Z M 273.410156 305.878906 C 267.441406 305.878906 257.417969 302.617188 257.417969 280.730469 C 257.417969 225.710938 308.671875 146.371094 310.859375 143.019531 C 311.554688 141.925781 313.023438 141.605469 314.117188 142.265625 C 315.226562 142.941406 315.625 144.375 314.984375 145.503906 C 314.605469 146.183594 277.386719 213.542969 277.386719 265.585938 C 277.386719 275.570312 279.609375 278.886719 281.585938 281.785156 C 283.242188 284.273438 284.976562 286.835938 284.976562 292.109375 C 284.976562 300.847656 280.757812 305.878906 273.410156 305.878906 " fill-opacity="1" fill-rule="nonzero"/><path fill="#ffffff" d="M 199.121094 163.230469 C 198.933594 163.230469 198.761719 163.210938 198.574219 163.171875 C 197.273438 162.871094 196.464844 161.570312 196.765625 160.273438 C 197.5 157.144531 198.386719 154.054688 199.328125 150.96875 L 199.574219 150.15625 C 200.117188 148.3125 200.664062 146.464844 201.269531 144.675781 C 210.988281 114.460938 224.585938 88.261719 228.542969 80.933594 C 229.164062 79.765625 230.632812 79.332031 231.800781 79.972656 C 232.96875 80.59375 233.402344 82.0625 232.78125 83.230469 C 228.882812 90.445312 215.453125 116.328125 205.84375 146.183594 C 205.261719 147.933594 204.714844 149.761719 204.1875 151.53125 L 203.921875 152.359375 C 203.039062 155.335938 202.171875 158.332031 201.476562 161.382812 C 201.210938 162.496094 200.214844 163.230469 199.121094 163.230469 " fill-opacity="1" fill-rule="nonzero"/><path fill="#ffffff" d="M 190.34375 164.019531 C 190.058594 164.019531 189.796875 163.964844 189.515625 163.871094 C 188.269531 163.417969 187.628906 162.023438 188.082031 160.78125 C 189.0625 158.085938 190.117188 155.414062 191.210938 152.773438 C 192.074219 150.609375 193 148.40625 193.921875 146.277344 C 208.972656 111.277344 227.46875 82.554688 228.617188 80.820312 C 228.730469 80.5 228.917969 80.234375 229.144531 79.992188 C 230.085938 79.050781 231.652344 79.03125 232.574219 79.972656 C 233.402344 80.78125 233.515625 82.042969 232.914062 82.96875 C 232.894531 82.984375 232.894531 83.003906 232.875 83.023438 C 232.5 83.683594 213.398438 113.21875 198.347656 148.179688 C 197.425781 150.289062 196.519531 152.4375 195.671875 154.582031 C 194.601562 157.183594 193.5625 159.800781 192.601562 162.417969 C 192.246094 163.398438 191.320312 164.019531 190.34375 164.019531 " fill-opacity="1" fill-rule="nonzero"/><path fill="#ffffff" d="M 191.453125 243.191406 C 185.484375 243.191406 175.441406 239.929688 175.441406 218.0625 C 175.441406 206.703125 177.683594 193.441406 182.109375 178.65625 C 182.488281 177.375 183.804688 176.660156 185.105469 177.035156 C 186.386719 177.414062 187.101562 178.75 186.726562 180.03125 C 182.429688 194.386719 180.265625 207.175781 180.265625 218.0625 C 180.265625 227.328125 182.207031 238.367188 191.453125 238.367188 C 194.335938 238.367188 198.160156 237.445312 198.160156 229.402344 C 198.160156 225.617188 197.066406 224.015625 195.578125 221.792969 C 193.355469 218.476562 190.585938 214.351562 190.585938 202.878906 C 190.585938 195.761719 191.265625 187.980469 192.585938 179.769531 C 192.792969 178.46875 194.070312 177.582031 195.351562 177.789062 C 196.671875 177.996094 197.574219 179.242188 197.351562 180.558594 C 196.070312 188.507812 195.410156 196.023438 195.410156 202.878906 C 195.410156 212.882812 197.632812 216.199219 199.589844 219.097656 C 201.25 221.585938 202.980469 224.128906 202.980469 229.402344 C 202.980469 238.160156 198.78125 243.191406 191.453125 243.191406 " fill-opacity="1" fill-rule="nonzero"/><path fill="#ffffff" d="M 122.984375 196.363281 C 110.402344 222.789062 98.289062 254.90625 98.289062 280.730469 C 98.289062 290 100.230469 301.054688 109.457031 301.054688 C 112.339844 301.054688 116.203125 300.132812 116.203125 292.109375 C 116.203125 288.304688 115.109375 286.703125 113.621094 284.480469 C 111.398438 281.164062 108.609375 277.058594 108.609375 265.585938 C 108.609375 242.90625 115.261719 217.855469 122.984375 196.363281 Z M 109.457031 305.878906 C 103.488281 305.878906 93.46875 302.617188 93.46875 280.730469 C 93.46875 225.710938 144.722656 146.371094 146.90625 143.019531 C 147.601562 141.945312 149.054688 141.605469 150.164062 142.265625 C 151.277344 142.941406 151.652344 144.375 151.03125 145.503906 C 150.652344 146.183594 113.433594 213.542969 113.433594 265.585938 C 113.433594 275.570312 115.65625 278.886719 117.613281 281.785156 C 119.292969 284.273438 121.023438 286.835938 121.023438 292.109375 C 121.023438 300.847656 116.804688 305.878906 109.457031 305.878906 " fill-opacity="1" fill-rule="nonzero"/><g clip-path="url(#0e65295ebe)"><path fill="#ffffff" d="M 273.957031 320.34375 C 268.777344 320.34375 242.933594 318.367188 242.933594 279.355469 C 242.933594 276.550781 243.273438 274.15625 243.554688 272.027344 C 244.027344 268.636719 244.253906 266.640625 243.3125 265.210938 C 242.746094 264.398438 241.691406 263.628906 240.128906 262.910156 C 239.28125 262.515625 238.769531 262.480469 238.582031 262.480469 C 238.074219 262.480469 237.472656 262.515625 236.8125 262.589844 C 230.464844 263.328125 224.058594 263.34375 217.769531 262.628906 C 216.882812 262.535156 216.015625 262.480469 215.148438 262.480469 C 214.90625 262.480469 214.433594 262.554688 213.550781 262.929688 C 211.101562 264.023438 209.761719 266.773438 210.441406 269.449219 C 210.703125 270.445312 211.042969 270.992188 211.609375 271.839844 C 213.871094 275.289062 217.5625 280.917969 217.5625 290.941406 C 217.5625 311.246094 204.1875 320.34375 190.925781 320.34375 C 185.746094 320.34375 159.902344 318.367188 159.902344 279.355469 C 159.902344 276.550781 160.242188 274.136719 160.542969 272.011719 C 161.015625 268.636719 161.222656 266.640625 160.28125 265.210938 C 159.714844 264.398438 158.679688 263.628906 157.113281 262.910156 C 156.265625 262.515625 155.738281 262.480469 155.570312 262.480469 C 154.761719 262.480469 153.628906 262.589844 152.40625 262.761719 C 146.660156 263.496094 140.953125 263.476562 135.433594 262.722656 C 134.324219 262.589844 133.210938 262.480469 132.136719 262.480469 C 131.875 262.480469 131.402344 262.554688 130.519531 262.929688 C 128.070312 264.023438 126.75 266.773438 127.410156 269.449219 C 127.691406 270.445312 128.011719 270.953125 128.597656 271.839844 C 130.839844 275.269531 134.550781 280.917969 134.550781 290.941406 C 134.550781 311.246094 121.15625 320.34375 107.894531 320.34375 C 102.714844 320.34375 76.890625 318.367188 76.890625 279.355469 C 76.890625 276.550781 77.210938 274.15625 77.511719 272.046875 C 78.226562 266.734375 78.472656 264.945312 74.085938 262.910156 C 73.519531 262.648438 72.917969 262.480469 72.539062 262.480469 C 69.148438 262.480469 65.738281 263.722656 62.425781 264.910156 C 59.164062 266.078125 55.792969 267.300781 52.480469 267.300781 C 51.140625 267.300781 50.066406 266.226562 50.066406 264.890625 C 50.066406 263.550781 51.140625 262.480469 52.480469 262.480469 C 54.945312 262.480469 57.789062 261.460938 60.785156 260.367188 C 64.308594 259.105469 68.320312 257.65625 72.539062 257.65625 C 73.613281 257.65625 74.820312 257.9375 76.101562 258.523438 C 83.746094 262.0625 83.03125 267.226562 82.277344 272.6875 C 82.015625 274.664062 81.714844 276.886719 81.714844 279.355469 C 81.714844 313.769531 103.527344 315.523438 107.894531 315.523438 C 117.972656 315.523438 129.726562 309.078125 129.726562 290.941406 C 129.726562 282.351562 126.636719 277.640625 124.601562 274.535156 C 123.832031 273.386719 123.210938 272.367188 122.738281 270.652344 C 121.515625 265.660156 123.964844 260.578125 128.578125 258.523438 C 131.628906 257.203125 133.570312 257.636719 136.039062 257.9375 C 141.199219 258.65625 146.472656 258.671875 151.746094 257.996094 C 154.78125 257.542969 156.664062 257.429688 159.113281 258.523438 C 161.503906 259.632812 163.179688 260.933594 164.273438 262.515625 C 166.289062 265.566406 165.835938 268.863281 165.308594 272.6875 C 165.046875 274.648438 164.726562 276.886719 164.726562 279.355469 C 164.726562 313.769531 186.554688 315.523438 190.925781 315.523438 C 200.984375 315.523438 212.738281 309.078125 212.738281 290.941406 C 212.738281 282.351562 209.667969 277.660156 207.632812 274.554688 C 206.863281 273.386719 206.242188 272.386719 205.769531 270.652344 C 204.527344 265.660156 206.992188 260.578125 211.609375 258.523438 C 214.359375 257.335938 216.148438 257.601562 218.316406 257.84375 C 224.152344 258.503906 230.371094 258.484375 236.246094 257.808594 C 238.449219 257.542969 240.050781 257.582031 242.144531 258.523438 C 244.535156 259.632812 246.210938 260.933594 247.304688 262.515625 C 249.320312 265.566406 248.867188 268.863281 248.339844 272.6875 C 248.058594 274.664062 247.757812 276.886719 247.757812 279.355469 C 247.757812 313.769531 269.585938 315.523438 273.957031 315.523438 C 284.015625 315.523438 295.769531 309.078125 295.769531 290.941406 C 295.769531 282.351562 292.679688 277.640625 290.648438 274.535156 C 289.875 273.386719 289.253906 272.367188 288.800781 270.636719 C 287.558594 265.660156 290.007812 260.578125 294.640625 258.523438 C 297.671875 257.203125 299.632812 257.636719 302.097656 257.9375 C 304.320312 258.242188 306.542969 258.976562 308.878906 259.765625 C 312.683594 261.046875 317 262.480469 322.519531 262.480469 C 323.855469 262.480469 324.929688 263.550781 324.929688 264.890625 C 324.929688 266.226562 323.855469 267.300781 322.519531 267.300781 C 316.226562 267.300781 311.308594 265.660156 307.355469 264.34375 C 305.132812 263.589844 303.230469 262.949219 301.476562 262.722656 C 300.367188 262.589844 299.253906 262.480469 298.179688 262.480469 C 297.9375 262.480469 297.445312 262.554688 296.5625 262.929688 C 294.113281 264.023438 292.792969 266.773438 293.472656 269.449219 C 293.734375 270.445312 294.054688 270.953125 294.640625 271.839844 C 296.882812 275.269531 300.59375 280.917969 300.59375 290.941406 C 300.59375 311.246094 287.21875 320.34375 273.957031 320.34375 " fill-opacity="1" fill-rule="nonzero"/></g><path fill="#ffffff" d="M 230.898438 185.324219 C 230.839844 185.324219 230.765625 185.324219 230.710938 185.324219 L 168.019531 180.503906 C 166.777344 180.390625 165.796875 179.351562 165.796875 178.089844 L 165.796875 163.625 C 165.796875 162.382812 166.757812 161.347656 167.984375 161.234375 L 219.972656 156.503906 L 296.898438 56.070312 C 297.710938 55.015625 299.21875 54.808594 300.273438 55.617188 C 301.328125 56.425781 301.535156 57.953125 300.722656 59.007812 L 223.175781 160.273438 C 222.761719 160.800781 222.136719 161.136719 221.460938 161.195312 L 170.621094 165.828125 L 170.621094 175.851562 L 229.9375 180.425781 L 315.945312 89.636719 C 316.867188 88.675781 318.394531 88.617188 319.351562 89.542969 C 320.3125 90.464844 320.351562 91.988281 319.449219 92.949219 L 232.648438 184.570312 C 232.195312 185.0625 231.558594 185.324219 230.898438 185.324219 " fill-opacity="1" fill-rule="nonzero"/><path fill="#ffffff" d="M 240.390625 109.261719 C 239.921875 109.261719 239.449219 109.132812 239.054688 108.847656 C 237.941406 108.113281 237.640625 106.605469 238.375 105.515625 L 271.472656 56.199219 C 272.222656 55.089844 273.730469 54.808594 274.824219 55.542969 C 275.933594 56.277344 276.21875 57.78125 275.484375 58.875 L 242.386719 108.1875 C 241.917969 108.886719 241.164062 109.261719 240.390625 109.261719 " fill-opacity="1" fill-rule="nonzero"/><path fill="#ffffff" d="M 216.636719 144.65625 C 216.1875 144.65625 215.714844 144.523438 215.300781 144.242188 C 214.191406 143.507812 213.886719 142 214.640625 140.890625 L 238.375 105.515625 C 239.128906 104.402344 240.65625 104.121094 241.726562 104.855469 C 242.839844 105.589844 243.121094 107.097656 242.386719 108.1875 L 218.652344 143.582031 C 218.183594 144.28125 217.410156 144.65625 216.636719 144.65625 " fill-opacity="1" fill-rule="nonzero"/><path fill="#ffffff" d="M 168.210938 170.859375 C 166.871094 170.859375 165.796875 169.785156 165.796875 168.445312 L 165.796875 153.980469 C 165.796875 152.871094 166.550781 151.910156 167.644531 151.644531 L 183.335938 147.839844 C 184.636719 147.519531 185.933594 148.3125 186.253906 149.609375 C 186.554688 150.890625 185.765625 152.210938 184.484375 152.511719 L 170.621094 155.882812 L 170.621094 168.445312 C 170.621094 169.785156 169.546875 170.859375 168.210938 170.859375 " fill-opacity="1" fill-rule="nonzero"/><path fill="#ffffff" d="M 187.5 303.464844 C 186.6875 303.464844 185.933594 303.070312 185.5 302.394531 L 175.855469 287.925781 C 175.105469 286.816406 175.40625 285.328125 176.515625 284.59375 C 177.628906 283.839844 179.117188 284.140625 179.851562 285.25 L 187.5 296.703125 L 195.144531 285.25 C 195.878906 284.140625 197.386719 283.859375 198.480469 284.59375 C 199.589844 285.328125 199.894531 286.816406 199.140625 287.925781 L 189.496094 302.394531 C 189.0625 303.070312 188.308594 303.464844 187.5 303.464844 " fill-opacity="1" fill-rule="nonzero"/><path fill="#ffffff" d="M 187.5 301.054688 C 186.160156 301.054688 185.085938 299.980469 185.085938 298.644531 L 185.085938 255.246094 C 185.085938 253.90625 186.160156 252.835938 187.5 252.835938 C 188.835938 252.835938 189.910156 253.90625 189.910156 255.246094 L 189.910156 298.644531 C 189.910156 299.980469 188.835938 301.054688 187.5 301.054688 " fill-opacity="1" fill-rule="nonzero"/></svg>