<svg xmlns="http://www.w3.org/2000/svg" xmlns:xlink="http://www.w3.org/1999/xlink" width="500" zoomAndPan="magnify" viewBox="0 0 375 374.999991" height="500" preserveAspectRatio="xMidYMid meet" version="1.0"><defs><clipPath id="82e4a2008f"><path d="M 149 231 L 170 231 L 170 313.964844 L 149 313.964844 Z M 149 231 " clip-rule="nonzero"/></clipPath></defs><rect x="-37.5" width="450" fill="#ffffff" y="-37.499999" height="449.999989" fill-opacity="1"/><rect x="-37.5" width="450" fill="#bc9c22" y="-37.499999" height="449.999989" fill-opacity="1"/><path fill="#ffffff" d="M 120.097656 149.699219 C 119.574219 170.421875 106.710938 168.570312 120.464844 192.9375 C 120.105469 187.824219 118.816406 182.691406 118.527344 177.523438 C 118.664062 168.28125 124.375 158.777344 120.105469 149.695312 Z M 120.097656 149.699219 " fill-opacity="1" fill-rule="nonzero"/><path fill="#ffffff" d="M 201.191406 201.203125 C 193.683594 212.597656 180.210938 216.679688 167.859375 220.589844 C 155.273438 224.078125 142.339844 230.230469 129.089844 230.394531 C 129.089844 230.382812 129.085938 230.378906 129.078125 230.375 C 129.105469 230.25 129.320312 230.128906 129.308594 230.015625 C 129.230469 230.101562 129.066406 230.183594 128.988281 230.304688 C 126.1875 226.957031 126.546875 222.167969 126.492188 217.824219 C 126.351562 210.226562 125.136719 201.574219 120.957031 194.90625 C 124.507812 206.3125 117.019531 225.679688 130.402344 231.652344 C 130.023438 231.363281 129.695312 231.046875 129.382812 230.730469 C 142.921875 233.414062 156.9375 229.410156 169.9375 225.710938 C 186.128906 221.921875 199.945312 213.765625 204.589844 196.847656 C 203.488281 198.324219 202.335938 199.765625 201.1875 201.207031 Z M 201.191406 201.203125 " fill-opacity="1" fill-rule="nonzero"/><path fill="#ffffff" d="M 219.9375 162.03125 C 211.105469 155.175781 199.105469 149.859375 195.886719 138.082031 C 195.066406 151.9375 208.117188 159.265625 219.9375 162.03125 Z M 219.9375 162.03125 " fill-opacity="1" fill-rule="nonzero"/><path fill="#ffffff" d="M 199.621094 139.542969 C 202.921875 151.082031 215.023438 156.492188 226.152344 157.371094 C 216.914062 152.117188 206.242188 148.410156 199.621094 139.542969 Z M 199.621094 139.542969 " fill-opacity="1" fill-rule="nonzero"/><path fill="#ffffff" d="M 235.851562 210.871094 C 243.398438 197.308594 237.347656 178.101562 224.03125 170.472656 C 219.1875 167.277344 212.578125 166.664062 208.625 162.328125 C 210.660156 166.691406 215.589844 168.5625 219.253906 171.332031 C 230.269531 178.355469 235.96875 192.332031 233.582031 205.097656 C 231.882812 213.152344 225.320312 218.695312 219.980469 224.476562 C 225.953125 221.035156 232.210938 216.933594 235.851562 210.867188 Z M 235.851562 210.871094 " fill-opacity="1" fill-rule="nonzero"/><path fill="#ffffff" d="M 241.808594 185.792969 C 248.484375 201.546875 238.371094 211.523438 227.285156 222.25 C 242.332031 216.539062 254.417969 200.269531 241.808594 185.792969 Z M 241.808594 185.792969 " fill-opacity="1" fill-rule="nonzero"/><path fill="#ffffff" d="M 217.578125 192.339844 C 221.535156 188.367188 222.796875 182.554688 224.167969 177.296875 C 220.699219 181.039062 217.132812 190 213.082031 191.828125 C 210.550781 192.667969 207.914062 189.730469 208.40625 187.296875 C 207.3125 188.667969 207.957031 191.128906 208.96875 192.488281 C 211.0625 195.335938 215.347656 194.75 217.578125 192.339844 Z M 217.578125 192.339844 " fill-opacity="1" fill-rule="nonzero"/><path fill="#ffffff" d="M 212.472656 166.859375 C 211.984375 168.207031 213.042969 169.597656 213.375 170.882812 C 214.144531 173.703125 214.285156 176.722656 213.496094 179.566406 C 216.039062 176.988281 216.304688 172.503906 214.097656 169.578125 C 213.519531 168.75 212.707031 168.027344 212.488281 167.007812 C 212.472656 167.007812 212.503906 166.800781 212.46875 166.863281 Z M 212.472656 166.859375 " fill-opacity="1" fill-rule="nonzero"/><path fill="#ffffff" d="M 216.265625 216.972656 C 219.304688 210.882812 218.449219 203.246094 214.230469 197.933594 C 216.359375 205.21875 215.480469 212.09375 211.824219 217.613281 C 213.167969 211.414062 212.953125 204.792969 212.945312 198.523438 C 210.246094 204.570312 210.050781 211.371094 211.734375 217.75 C 209.828125 220.785156 207.304688 223.617188 204.433594 226.363281 C 209.015625 224.421875 213.808594 221.503906 216.265625 216.972656 Z M 216.265625 216.972656 " fill-opacity="1" fill-rule="nonzero"/><path fill="#ffffff" d="M 217.476562 232.40625 C 215.808594 228.957031 214.234375 225.261719 213.421875 221.484375 C 212.160156 230.933594 216.449219 240.558594 222.835938 247.539062 C 227.125 259.042969 235.121094 269.027344 245.441406 275.804688 C 236.609375 260.964844 223.226562 248.933594 217.476562 232.398438 Z M 217.476562 232.40625 " fill-opacity="1" fill-rule="nonzero"/><path fill="#ffffff" d="M 169.363281 101.882812 C 169.363281 101.882812 169.34375 101.882812 169.335938 101.882812 C 169.335938 101.882812 169.34375 101.882812 169.347656 101.886719 C 169.355469 101.886719 169.363281 101.886719 169.371094 101.886719 Z M 169.363281 101.882812 " fill-opacity="1" fill-rule="nonzero"/><path fill="#ffffff" d="M 197.71875 136.382812 C 203.523438 143.496094 212.191406 147.191406 220.5 150.539062 C 214.027344 145.390625 206.695312 140.746094 201.929688 133.746094 C 193.710938 121.351562 188.214844 99.496094 169.363281 101.878906 C 187.371094 103.734375 188.09375 124.945312 197.71875 136.382812 Z M 197.71875 136.382812 " fill-opacity="1" fill-rule="nonzero"/><path fill="#ffffff" d="M 254.855469 153.160156 C 245.472656 149.441406 235.359375 152.429688 225.675781 151.1875 C 226.601562 151.992188 228.148438 152.125 229.339844 152.523438 C 258.300781 155.921875 264.914062 162.191406 264.921875 191.945312 C 269.15625 178.890625 269.363281 159.773438 254.863281 153.164062 Z M 254.855469 153.160156 " fill-opacity="1" fill-rule="nonzero"/><path fill="#ffffff" d="M 254.734375 179.070312 C 254.46875 178.804688 254.027344 178.511719 253.960938 178.101562 C 265.054688 194.898438 256.683594 208.824219 242.679688 220.316406 C 260.558594 214.539062 271.578125 192.839844 254.734375 179.070312 Z M 254.734375 179.070312 " fill-opacity="1" fill-rule="nonzero"/><path fill="#ffffff" d="M 265.964844 200.761719 C 266.207031 211.6875 258.632812 222.527344 248.683594 226.851562 C 245.09375 228.613281 241.125 229.652344 237.203125 230.480469 C 234.710938 231.054688 232.269531 231.964844 229.664062 231.683594 C 247.710938 236.457031 267.027344 226.46875 267.035156 206.265625 C 266.882812 204.464844 266.957031 202.273438 265.964844 200.761719 Z M 265.964844 200.761719 " fill-opacity="1" fill-rule="nonzero"/><path fill="#ffffff" d="M 244.730469 234.25 C 240.167969 234.589844 226.089844 238.199219 224.398438 232.25 C 223.472656 233.003906 224.769531 234.640625 225.390625 235.265625 C 230.859375 240.292969 239.179688 238.003906 244.722656 234.246094 Z M 244.730469 234.25 " fill-opacity="1" fill-rule="nonzero"/><path fill="#ffffff" d="M 248.617188 237.050781 C 246.476562 237.550781 243.886719 237.066406 241.941406 237.574219 C 243.195312 237.75 244.433594 238.390625 245.714844 238.632812 C 250.8125 240.148438 258.390625 237.058594 257.980469 231.03125 C 256.644531 234.800781 252.238281 236.363281 248.621094 237.050781 Z M 248.617188 237.050781 " fill-opacity="1" fill-rule="nonzero"/><path fill="#ffffff" d="M 276.785156 219.550781 C 275.03125 223.921875 272.757812 228.699219 268.304688 230.839844 C 266.511719 231.792969 264.273438 231.929688 262.699219 233.222656 C 266.191406 232.667969 270.183594 233.285156 273.152344 230.59375 C 277.210938 227.226562 279 221.109375 277.605469 216.054688 C 277.40625 217.183594 277.195312 218.425781 276.785156 219.546875 Z M 276.785156 219.550781 " fill-opacity="1" fill-rule="nonzero"/><path fill="#ffffff" d="M 274.15625 171.648438 C 273.144531 170.820312 272.074219 170.078125 271.117188 169.183594 C 282.792969 182.222656 281.359375 198.964844 279.171875 215.148438 C 286.207031 201.132812 288.445312 182.015625 274.160156 171.65625 Z M 274.15625 171.648438 " fill-opacity="1" fill-rule="nonzero"/><path fill="#ffffff" d="M 292.328125 156.320312 C 280.886719 153.5625 269.078125 154.4375 257.636719 151.53125 C 267.769531 158.671875 280.617188 158.398438 292.328125 156.320312 Z M 292.328125 156.320312 " fill-opacity="1" fill-rule="nonzero"/><path fill="#ffffff" d="M 298.425781 156.027344 C 294.648438 155.648438 295.75 155.769531 298.382812 156.984375 C 308.835938 161.726562 309.007812 174.359375 312.234375 183.882812 C 313.753906 172.78125 311.886719 157.988281 298.425781 156.03125 Z M 298.425781 156.027344 " fill-opacity="1" fill-rule="nonzero"/><path fill="#ffffff" d="M 290.835938 168.375 C 304.847656 174.292969 304.265625 192.0625 301.144531 204.578125 C 310.375 192.984375 308.378906 169.902344 290.835938 168.375 Z M 290.835938 168.375 " fill-opacity="1" fill-rule="nonzero"/><path fill="#ffffff" d="M 296.1875 197.578125 C 296.164062 197.53125 296.21875 197.375 296.167969 197.371094 C 295.875 198.59375 296.417969 199.890625 296.378906 201.152344 C 296.472656 210.0625 292.675781 218.785156 287.996094 226.203125 C 297.039062 220.457031 301.613281 207.261719 296.183594 197.585938 Z M 296.1875 197.578125 " fill-opacity="1" fill-rule="nonzero"/><path fill="#ffffff" d="M 220.679688 85.128906 C 229.027344 84.421875 236.367188 94.683594 241.117188 100.554688 C 253.523438 116.902344 257.058594 138.378906 271.695312 153.179688 C 261.007812 133.351562 257.308594 109.164062 240.585938 92.960938 C 235.953125 88.058594 221.617188 77.484375 217.703125 87.703125 C 218.289062 86.605469 219.46875 85.617188 220.675781 85.128906 Z M 220.679688 85.128906 " fill-opacity="1" fill-rule="nonzero"/><path fill="#ffffff" d="M 181.214844 98.03125 C 194.351562 98.625 201.746094 114.832031 210.351562 123.351562 C 206.933594 113.914062 201.886719 103.859375 192.28125 99.453125 C 189.101562 97.980469 184.34375 95.453125 181.214844 98.03125 Z M 181.214844 98.03125 " fill-opacity="1" fill-rule="nonzero"/><path fill="#ffffff" d="M 195.8125 94.949219 C 208.824219 105.628906 216.148438 121.964844 228.734375 133.246094 C 221.484375 119.335938 211.300781 100.609375 195.8125 94.949219 Z M 195.8125 94.949219 " fill-opacity="1" fill-rule="nonzero"/><path fill="#ffffff" d="M 205.558594 93.820312 C 218.902344 99.890625 223.828125 109.640625 230.859375 121.671875 C 236.390625 130.90625 244.410156 138.289062 252.1875 145.613281 C 238.191406 128.410156 229.082031 97.625 205.5625 93.816406 Z M 205.558594 93.820312 " fill-opacity="1" fill-rule="nonzero"/><path fill="#ffffff" d="M 216.375 91.949219 C 221.402344 93.414062 225.269531 97.6875 229.238281 101.007812 C 233.167969 104.542969 237.585938 107.5625 242.074219 110.335938 C 240.46875 108.289062 238.773438 106.1875 236.964844 104.152344 C 237.214844 104.316406 237.453125 104.496094 237.707031 104.65625 C 236.660156 102.183594 228.113281 92.464844 225.53125 94.433594 C 223.886719 93.511719 217.546875 90.492188 216.03125 91.898438 C 216.058594 92.035156 216.480469 92.019531 216.375 91.949219 Z M 227.917969 95.925781 C 227.175781 95.417969 226.421875 94.941406 225.644531 94.503906 C 226.316406 94.277344 227.140625 95.027344 227.917969 95.925781 Z M 227.917969 95.925781 " fill-opacity="1" fill-rule="nonzero"/><path fill="#ffffff" d="M 244.957031 149.929688 C 247.671875 150.585938 250.40625 151.144531 253.164062 151.59375 C 249.960938 149.785156 246.566406 148.066406 243.226562 146.429688 C 235.835938 143.453125 229.535156 138.644531 223.046875 134.140625 C 221.078125 132.886719 215.507812 129.039062 214.109375 132.429688 C 217.40625 129.8125 222.671875 138.121094 225.503906 139.980469 C 228.105469 142.371094 230.84375 144.785156 234.03125 146.363281 C 237.496094 148.050781 241.242188 148.988281 244.964844 149.929688 Z M 244.957031 149.929688 " fill-opacity="1" fill-rule="nonzero"/><path fill="#ffffff" d="M 127.175781 86.796875 C 136.542969 82.125 153.675781 80.796875 156.90625 93.476562 C 156.921875 94.4375 156.65625 95.527344 156.085938 96.320312 C 166.929688 79.953125 119.988281 63.53125 112.621094 103.140625 C 116.65625 97.132812 120.265625 90.039062 127.167969 86.796875 Z M 127.175781 86.796875 " fill-opacity="1" fill-rule="nonzero"/><path fill="#ffffff" d="M 83.761719 166.910156 C 100.527344 170.148438 108.300781 149.992188 108.792969 136.382812 C 109.566406 120.285156 97.695312 99.148438 115.132812 88.0625 C 88.578125 99.609375 109.472656 126.105469 101.484375 148.15625 C 97.601562 162.292969 83.007812 167.546875 73.324219 155.429688 C 69.207031 150.195312 74.011719 143.988281 77.410156 147.84375 C 76.523438 144.917969 72.175781 145.441406 70.757812 147.683594 C 65.324219 156.183594 75.523438 165.726562 83.765625 166.914062 Z M 83.761719 166.910156 " fill-opacity="1" fill-rule="nonzero"/><path fill="#ffffff" d="M 103.652344 96.988281 C 95.195312 102.660156 94.503906 115.175781 98.664062 123.785156 C 98.945312 114.832031 98.429688 104.777344 103.652344 96.988281 Z M 103.652344 96.988281 " fill-opacity="1" fill-rule="nonzero"/><path fill="#ffffff" d="M 159.46875 77.699219 C 149.242188 76.011719 169.984375 79.988281 165.1875 93.511719 C 165.089844 94.105469 164.597656 94.882812 164.964844 95.425781 C 164.992188 95.4375 164.957031 95.371094 164.957031 95.375 C 170.261719 88.222656 168.519531 80.265625 159.476562 77.703125 Z M 159.46875 77.699219 " fill-opacity="1" fill-rule="nonzero"/><path fill="#ffffff" d="M 173.085938 93.222656 C 179.074219 84.8125 170.617188 68.203125 159.808594 73.679688 C 169.503906 72.476562 174.09375 85.183594 173.085938 93.222656 Z M 173.085938 93.222656 " fill-opacity="1" fill-rule="nonzero"/><path fill="#ffffff" d="M 179.273438 77.953125 C 178.835938 77.253906 177.113281 74.910156 176.273438 75.253906 C 180.3125 80.148438 178.785156 87.324219 179.453125 93.246094 C 180.765625 88.351562 185.199219 82.589844 182.191406 77.628906 C 182.398438 79.851562 181.851562 82.058594 181.292969 84.289062 C 181.21875 82.050781 180.640625 79.863281 179.273438 77.953125 Z M 179.273438 77.953125 " fill-opacity="1" fill-rule="nonzero"/><path fill="#ffffff" d="M 176.246094 75.230469 C 176.246094 75.230469 176.246094 75.25 176.238281 75.257812 C 176.25 75.253906 176.265625 75.257812 176.273438 75.257812 C 176.265625 75.25 176.257812 75.238281 176.25 75.230469 C 176.25 75.230469 176.25 75.230469 176.246094 75.234375 Z M 176.246094 75.230469 " fill-opacity="1" fill-rule="nonzero"/><path fill="#ffffff" d="M 188.085938 85.144531 C 188.25 87.359375 188.636719 89.667969 188.96875 91.988281 C 190.203125 87.359375 191.328125 80.8125 187.546875 77.046875 C 186.585938 76.328125 185.109375 75.957031 184.210938 76.957031 C 188.34375 76.210938 187.738281 82.464844 188.085938 85.148438 Z M 188.085938 85.144531 " fill-opacity="1" fill-rule="nonzero"/><path fill="#ffffff" d="M 201.734375 80.429688 C 201.347656 78.109375 200.503906 74.371094 197.878906 73.996094 C 199.351562 74.84375 199.441406 76.765625 199.640625 78.316406 C 200.402344 83.757812 197.230469 88.4375 195.527344 93.382812 C 198.785156 89.96875 202.804688 85.566406 201.734375 80.429688 Z M 201.734375 80.429688 " fill-opacity="1" fill-rule="nonzero"/><path fill="#ffffff" d="M 208.984375 79.1875 C 208.886719 78.34375 208.730469 77.015625 208.117188 76.535156 C 208.875 82.292969 203.398438 86.097656 200.421875 90.355469 C 204.714844 88.210938 209.546875 84.59375 208.980469 79.1875 Z M 208.984375 79.1875 " fill-opacity="1" fill-rule="nonzero"/><path fill="#ffffff" d="M 210.347656 77.296875 C 211.738281 79.484375 213.144531 82.824219 211.539062 85.167969 C 214.589844 82.847656 213.476562 77.964844 212.058594 74.941406 C 206.011719 64.070312 191.164062 65.167969 180.726562 67.671875 C 190.574219 69.816406 203.597656 68.460938 210.34375 77.296875 Z M 210.347656 77.296875 " fill-opacity="1" fill-rule="nonzero"/><path fill="#ffffff" d="M 192.1875 73.410156 C 169.59375 61.402344 140.441406 65.285156 121.210938 82.054688 C 143.265625 72.28125 168.410156 67.675781 192.1875 73.410156 Z M 192.1875 73.410156 " fill-opacity="1" fill-rule="nonzero"/><path fill="#ffffff" d="M 141.960938 91.265625 C 142.457031 91.308594 143.09375 91.332031 143.464844 91.691406 C 127.46875 82.699219 110.515625 102.894531 117.53125 118.476562 C 117.246094 105.144531 127.433594 90.222656 141.960938 91.265625 Z M 141.960938 91.265625 " fill-opacity="1" fill-rule="nonzero"/><path fill="#ffffff" d="M 119.660156 118.597656 C 123.421875 113.976562 124.972656 106.367188 130.828125 103.992188 C 123.636719 103.875 120.488281 112.609375 119.660156 118.597656 Z M 119.660156 118.597656 " fill-opacity="1" fill-rule="nonzero"/><path fill="#ffffff" d="M 79.414062 188.363281 C 94.007812 170.488281 117.578125 180.785156 118.433594 142.296875 C 118.875 143.589844 119.492188 144.867188 120.308594 146.125 C 117.914062 136.519531 124.757812 128.550781 127.835938 119.953125 C 131.230469 112.792969 133.011719 103.796875 139.339844 98.574219 C 128.597656 102.632812 118.757812 124.679688 117.558594 135.6875 C 116.847656 132.429688 115.734375 129.253906 114.195312 126.300781 C 117.210938 140.152344 115.132812 156.511719 104.433594 166.738281 C 99.027344 171.660156 91.511719 172.757812 85.324219 176.359375 C 79.121094 179.566406 73.914062 185.046875 72.050781 191.886719 C 69.226562 203.046875 71.664062 215.222656 85.886719 212.757812 C 82.84375 211.914062 79.230469 211.519531 76.902344 209.203125 C 73.035156 203.777344 76.058594 193.546875 79.421875 188.363281 Z M 79.414062 188.363281 " fill-opacity="1" fill-rule="nonzero"/><path fill="#ffffff" d="M 78.542969 177.546875 C 65.285156 179.765625 61.191406 187.800781 64.09375 200.46875 C 65.683594 189.421875 67.925781 183.039062 78.542969 177.546875 Z M 78.542969 177.546875 " fill-opacity="1" fill-rule="nonzero"/><path fill="#ffffff" d="M 100.550781 218.476562 C 101.867188 219.90625 103.382812 221.140625 104.996094 222.25 C 95.886719 220.429688 92.183594 211.425781 90.507812 203.21875 C 88.300781 194.804688 90.6875 186.789062 96.753906 180.660156 C 77.554688 189.945312 84.398438 225.929688 106.992188 223.523438 C 108.285156 224.296875 109.601562 225.019531 110.945312 225.660156 C 105.675781 219.234375 97.929688 213.457031 96.71875 204.703125 C 95.335938 209.480469 97.671875 214.691406 100.550781 218.46875 Z M 100.550781 218.476562 " fill-opacity="1" fill-rule="nonzero"/><path fill="#ffffff" d="M 107.4375 209.5625 C 104.164062 200.527344 105.859375 190.21875 111.902344 182.664062 C 102.546875 188.988281 99.273438 201.417969 103.140625 211.832031 C 106.1875 221.367188 113.179688 227.269531 123.480469 225.703125 C 114.023438 223.886719 109.785156 218.625 107.441406 209.5625 Z M 107.4375 209.5625 " fill-opacity="1" fill-rule="nonzero"/><path fill="#ffffff" d="M 114.640625 205.597656 C 109.824219 211.300781 113.871094 217.949219 119.195312 221.554688 C 116.660156 216.707031 112.511719 211.375 114.640625 205.597656 Z M 114.640625 205.597656 " fill-opacity="1" fill-rule="nonzero"/><path fill="#ffffff" d="M 119.011719 218.339844 C 118.710938 215.929688 118.292969 213.421875 117.519531 211.070312 C 117.101562 209.308594 116.085938 207.308594 116.492188 205.46875 C 114.328125 209.417969 116.804688 214.773438 119.011719 218.339844 Z M 119.011719 218.339844 " fill-opacity="1" fill-rule="nonzero"/><path fill="#ffffff" d="M 149.8125 232.332031 C 149.820312 232.324219 149.835938 232.320312 149.847656 232.316406 C 149.835938 232.316406 149.824219 232.316406 149.8125 232.316406 C 149.8125 232.316406 149.8125 232.320312 149.8125 232.324219 Z M 149.8125 232.332031 " fill-opacity="1" fill-rule="nonzero"/><g clip-path="url(#82e4a2008f)"><path fill="#ffffff" d="M 149.847656 232.316406 C 168.113281 237.347656 163.570312 296.847656 165.09375 313.628906 C 170.921875 293.125 171.789062 265.011719 163.585938 244.972656 C 161.734375 240.644531 154.976562 229.078125 149.847656 232.316406 Z M 149.847656 232.316406 " fill-opacity="1" fill-rule="nonzero"/></g></svg>