<svg xmlns="http://www.w3.org/2000/svg" xmlns:xlink="http://www.w3.org/1999/xlink" width="500" zoomAndPan="magnify" viewBox="0 0 375 374.999991" height="500" preserveAspectRatio="xMidYMid meet" version="1.0"><defs><clipPath id="be412b71bb"><path d="M 42.230469 56.476562 L 332.480469 56.476562 L 332.480469 329.832031 L 42.230469 329.832031 Z M 42.230469 56.476562 " clip-rule="nonzero"/></clipPath></defs><rect x="-37.5" width="450" fill="#ffffff" y="-37.499999" height="449.999989" fill-opacity="1"/><rect x="-37.5" width="450" fill="#bc9c22" y="-37.499999" height="449.999989" fill-opacity="1"/><g clip-path="url(#be412b71bb)"><path fill="#ffffff" d="M 199.574219 274.246094 C 199.582031 274.304688 199.582031 274.410156 199.582031 274.523438 C 199.582031 275.199219 199.511719 275.859375 199.390625 276.558594 C 195.613281 280.511719 193.324219 285.855469 193.324219 291.605469 C 193.324219 292.59375 193.390625 293.605469 193.542969 294.644531 C 195.058594 305.535156 204.382812 313.421875 215.101562 313.421875 C 216.109375 313.421875 217.109375 313.347656 218.105469 313.222656 C 229.054688 311.691406 236.933594 302.363281 236.933594 291.648438 C 236.933594 290.640625 236.863281 289.632812 236.726562 288.628906 C 235.988281 283.335938 233.398438 278.757812 229.738281 275.453125 C 228.613281 273.34375 227.832031 271.902344 227.304688 269.859375 C 223.515625 255.59375 216.335938 232.789062 202.0625 209.960938 C 188.035156 187.0625 166.949219 164.980469 143.296875 149.855469 C 119.792969 134.503906 94.710938 126.371094 76.027344 123.097656 C 66.730469 121.425781 59.054688 120.707031 53.695312 120.386719 C 51.011719 120.226562 48.910156 120.164062 47.488281 120.132812 C 46.773438 120.121094 46.226562 120.113281 45.898438 120.109375 C 45.820312 120.105469 45.75 120.101562 45.703125 120.101562 C 45.578125 120.085938 45.4375 120.078125 45.285156 120.082031 L 45.285156 120.070312 L 45.277344 120.070312 C 45.15625 120.070312 45.035156 120.078125 44.914062 120.09375 C 44.898438 120.09375 44.882812 120.097656 44.867188 120.097656 C 44.480469 120.113281 44.105469 120.257812 43.765625 120.472656 C 43.53125 120.605469 43.3125 120.765625 43.125 120.957031 C 42.972656 121.109375 42.839844 121.277344 42.726562 121.453125 C 42.476562 121.796875 42.328125 122.132812 42.324219 122.355469 C 42.320312 122.371094 42.316406 122.390625 42.316406 122.410156 C 42.261719 122.636719 42.230469 122.875 42.230469 123.113281 L 42.230469 123.117188 C 42.230469 123.121094 42.230469 123.128906 42.230469 123.132812 L 42.230469 123.140625 C 42.230469 123.15625 42.230469 123.171875 42.230469 123.183594 C 42.230469 123.171875 42.230469 123.160156 42.230469 123.144531 C 42.222656 123.339844 42.242188 123.460938 42.261719 123.542969 C 42.253906 123.488281 42.246094 123.421875 42.242188 123.351562 C 42.246094 123.421875 42.257812 123.496094 42.269531 123.566406 C 42.269531 123.566406 42.269531 123.570312 42.269531 123.574219 C 42.273438 123.613281 42.28125 123.652344 42.289062 123.691406 C 42.292969 123.707031 42.296875 123.722656 42.300781 123.742188 C 42.300781 123.742188 42.300781 123.742188 42.300781 123.746094 C 42.476562 124.585938 42.945312 125.121094 43.246094 125.386719 C 43.273438 125.4375 43.367188 125.523438 43.773438 125.738281 C 44.214844 126 44.421875 126.070312 44.539062 126.089844 C 44.609375 126.105469 44.664062 126.113281 44.703125 126.113281 C 44.667969 126.109375 44.632812 126.101562 44.597656 126.09375 C 44.613281 126.09375 44.632812 126.09375 44.648438 126.09375 C 44.691406 126.089844 44.726562 126.089844 44.777344 126.113281 C 44.828125 126.109375 44.867188 126.109375 44.9375 126.144531 C 44.894531 126.140625 44.855469 126.136719 44.816406 126.128906 L 44.816406 126.132812 C 44.859375 126.136719 44.902344 126.144531 44.945312 126.152344 C 44.949219 126.152344 44.949219 126.152344 44.949219 126.152344 C 44.960938 126.152344 44.976562 126.152344 44.988281 126.15625 C 46.171875 126.296875 48.761719 126.371094 53.738281 126.96875 C 58.824219 127.578125 65.9375 128.691406 74.417969 130.753906 C 91.949219 134.910156 115.386719 144.273438 136.101562 160.132812 C 156.976562 175.738281 174.660156 197.800781 184.953125 219.414062 C 195.539062 241.046875 199.097656 261.796875 199.574219 274.246094 Z M 139.777344 155.273438 C 138.429688 154.242188 137.074219 153.242188 135.707031 152.261719 C 137.140625 153.140625 138.570312 154.042969 139.992188 154.96875 C 162.792969 169.523438 183.367188 191.066406 196.882812 213.171875 C 210.707031 235.253906 217.710938 257.453125 221.410156 271.402344 C 222.203125 274.457031 223.449219 276.578125 224.617188 278.796875 L 225.332031 279.695312 C 228.15625 282.117188 230.140625 285.492188 230.695312 289.457031 C 230.796875 290.1875 230.847656 290.925781 230.847656 291.648438 C 230.847656 299.347656 225.15625 306.09375 217.300781 307.183594 C 216.558594 307.277344 215.816406 307.328125 215.101562 307.328125 C 207.398438 307.328125 200.65625 301.644531 199.574219 293.789062 C 199.460938 293.039062 199.417969 292.320312 199.417969 291.605469 C 199.417969 287.230469 201.261719 283.167969 204.300781 280.261719 C 204.742188 279.835938 205.046875 279.300781 205.175781 278.714844 C 205.453125 277.421875 205.671875 276.035156 205.667969 274.523438 C 205.671875 274.367188 205.667969 274.21875 205.667969 274.058594 C 205.136719 260.71875 201.445312 239.285156 190.433594 216.761719 C 179.675781 194.21875 161.488281 171.53125 139.777344 155.273438 Z M 42.269531 123.566406 C 42.265625 123.558594 42.261719 123.550781 42.261719 123.542969 C 42.273438 123.632812 42.289062 123.703125 42.300781 123.753906 L 42.300781 123.746094 C 42.296875 123.726562 42.292969 123.707031 42.289062 123.691406 C 42.28125 123.648438 42.273438 123.605469 42.269531 123.566406 Z M 44.765625 126.113281 C 44.75 126.113281 44.726562 126.113281 44.703125 126.113281 C 44.738281 126.121094 44.777344 126.125 44.816406 126.128906 C 44.800781 126.125 44.789062 126.121094 44.777344 126.113281 C 44.773438 126.113281 44.773438 126.113281 44.765625 126.113281 Z M 274.5 273.140625 L 244.402344 273.140625 C 243.3125 273.140625 242.3125 273.714844 241.769531 274.65625 C 241.21875 275.597656 241.21875 276.757812 241.753906 277.703125 C 243.691406 281.074219 244.988281 284.78125 245.523438 288.675781 C 245.726562 290.109375 245.816406 291.539062 245.824219 292.945312 C 245.824219 308.046875 234.640625 321.304688 219.253906 323.4375 C 217.816406 323.640625 216.390625 323.734375 214.984375 323.734375 C 199.875 323.742188 186.621094 312.554688 184.492188 297.179688 C 184.296875 295.789062 184.203125 294.402344 184.203125 293.027344 C 184.203125 287.648438 185.636719 282.359375 188.300781 277.703125 C 188.835938 276.757812 188.835938 275.597656 188.289062 274.65625 C 187.746094 273.714844 186.746094 273.140625 185.65625 273.140625 L 156.472656 273.140625 C 154.792969 273.140625 153.421875 274.507812 153.421875 276.191406 C 153.421875 277.871094 154.792969 279.234375 156.472656 279.234375 L 180.800781 279.234375 C 179.039062 283.589844 178.109375 288.273438 178.109375 293.027344 C 178.109375 294.683594 178.222656 296.351562 178.457031 298.015625 C 181.027344 316.453125 196.855469 329.824219 214.984375 329.832031 C 216.671875 329.832031 218.378906 329.714844 220.09375 329.472656 C 238.539062 326.890625 251.910156 311.074219 251.917969 292.945312 C 251.917969 291.257812 251.796875 289.550781 251.554688 287.839844 C 251.144531 284.859375 250.367188 281.972656 249.257812 279.234375 L 274.5 279.234375 C 276.179688 279.234375 277.550781 277.871094 277.550781 276.191406 C 277.550781 274.507812 276.179688 273.140625 274.5 273.140625 Z M 330.699219 69.527344 L 307.71875 61.660156 L 303.78125 60.308594 C 303.777344 60.308594 303.773438 60.308594 303.773438 60.308594 L 293.070312 56.640625 C 291.476562 56.101562 289.742188 56.941406 289.195312 58.535156 C 288.65625 60.128906 289.5 61.863281 291.089844 62.402344 L 298.921875 65.085938 L 282.652344 112.597656 L 274.820312 109.917969 C 273.230469 109.378906 271.496094 110.21875 270.953125 111.816406 C 270.40625 113.40625 271.253906 115.136719 272.847656 115.683594 L 276.09375 116.796875 L 272.5625 127.109375 C 272.558594 127.113281 272.554688 127.121094 272.554688 127.125 C 272.550781 127.128906 272.550781 127.136719 272.550781 127.140625 L 252.121094 186.800781 C 251.671875 188.109375 251.453125 189.449219 251.453125 190.777344 C 251.453125 194.296875 252.976562 197.644531 255.585938 199.964844 L 251.226562 212.691406 C 250.90625 213.628906 250.742188 214.605469 250.742188 215.574219 C 250.742188 218.265625 251.976562 220.828125 254.074219 222.519531 L 242.011719 257.746094 C 241.464844 259.34375 242.3125 261.074219 243.90625 261.617188 C 244.230469 261.730469 244.566406 261.785156 244.894531 261.785156 C 246.15625 261.785156 247.335938 260.992188 247.769531 259.722656 L 259.839844 224.480469 C 263.488281 224.40625 266.839844 222.101562 268.097656 218.480469 L 272.554688 205.464844 C 277.070312 204.90625 281.089844 201.855469 282.671875 197.273438 L 306.648438 127.257812 L 310.484375 128.570312 C 310.808594 128.679688 311.140625 128.734375 311.46875 128.734375 C 312.734375 128.734375 313.914062 127.941406 314.351562 126.675781 C 314.890625 125.085938 314.046875 123.351562 312.457031 122.804688 L 305.742188 120.507812 C 305.742188 120.507812 305.742188 120.507812 305.742188 120.503906 L 304.628906 120.125 L 320.894531 72.609375 L 328.730469 75.292969 C 329.058594 75.402344 329.386719 75.453125 329.710938 75.453125 C 330.984375 75.453125 332.164062 74.660156 332.59375 73.398438 C 333.140625 71.804688 332.292969 70.070312 330.699219 69.527344 Z M 262.34375 216.496094 C 261.945312 217.65625 260.828125 218.398438 259.664062 218.398438 C 259.351562 218.398438 259.042969 218.347656 258.75 218.246094 C 257.570312 217.847656 256.839844 216.738281 256.835938 215.574219 C 256.835938 215.285156 256.882812 214.980469 256.988281 214.675781 L 261.042969 202.84375 L 266.390625 204.671875 Z M 276.910156 195.296875 C 276.03125 197.855469 273.617188 199.476562 271.058594 199.476562 C 270.378906 199.476562 269.710938 199.371094 269.054688 199.144531 L 261.734375 196.640625 C 259.152344 195.753906 257.550781 193.339844 257.539062 190.777344 C 257.539062 190.128906 257.65625 189.449219 257.882812 188.773438 L 259.628906 183.679688 L 269.242188 186.96875 C 269.570312 187.082031 269.902344 187.132812 270.226562 187.132812 C 271.492188 187.132812 272.671875 186.339844 273.109375 185.078125 C 273.652344 183.484375 272.804688 181.75 271.210938 181.210938 L 261.597656 177.917969 L 265.527344 166.445312 L 275.136719 169.738281 C 275.464844 169.847656 275.800781 169.902344 276.128906 169.902344 C 277.390625 169.902344 278.574219 169.105469 279.011719 167.847656 C 279.550781 166.25 278.703125 164.515625 277.109375 163.976562 L 267.5 160.683594 L 271.429688 149.210938 L 281.039062 152.503906 C 281.367188 152.617188 281.703125 152.667969 282.03125 152.667969 C 283.296875 152.667969 284.476562 151.875 284.910156 150.605469 C 285.453125 149.015625 284.605469 147.285156 283.011719 146.738281 L 273.402344 143.445312 L 277.332031 131.972656 L 286.941406 135.265625 C 287.269531 135.378906 287.601562 135.433594 287.933594 135.433594 C 289.195312 135.433594 290.378906 134.636719 290.808594 133.375 C 291.355469 131.777344 290.507812 130.050781 288.914062 129.503906 L 279.304688 126.210938 L 281.851562 118.765625 L 300.882812 125.28125 Z M 298.867188 118.148438 L 288.410156 114.570312 L 304.683594 67.058594 L 309.410156 68.675781 L 315.132812 70.636719 L 298.867188 118.148438 " fill-opacity="1" fill-rule="nonzero"/></g></svg>