<svg xmlns="http://www.w3.org/2000/svg" xmlns:xlink="http://www.w3.org/1999/xlink" width="500" zoomAndPan="magnify" viewBox="0 0 375 374.999991" height="500" preserveAspectRatio="xMidYMid meet" version="1.0"><defs><clipPath id="74e2b3161c"><path d="M 93 93.21875 L 282 93.21875 L 282 205 L 93 205 Z M 93 93.21875 " clip-rule="nonzero"/></clipPath><clipPath id="babaa61126"><path d="M 95 194 L 282 194 L 282 281.46875 L 95 281.46875 Z M 95 194 " clip-rule="nonzero"/></clipPath><clipPath id="b99896a0d7"><path d="M 85.296875 187.496094 L 289.703125 187.496094 L 289.703125 259.210938 L 85.296875 259.210938 Z M 85.296875 187.496094 " clip-rule="nonzero"/></clipPath></defs><rect x="-37.5" width="450" fill="#ffffff" y="-37.499999" height="449.999989" fill-opacity="1"/><rect x="-37.5" width="450" fill="#bc9c22" y="-37.499999" height="449.999989" fill-opacity="1"/><g clip-path="url(#74e2b3161c)"><path fill="#ffffff" d="M 104.9375 204.289062 C 103.839844 198.859375 103.261719 193.246094 103.261719 187.496094 C 103.261719 140.972656 140.976562 103.253906 187.503906 103.253906 C 234.027344 103.253906 271.742188 140.972656 271.742188 187.496094 C 271.742188 187.90625 271.734375 188.3125 271.726562 188.722656 C 271.832031 188.722656 271.9375 188.726562 272.042969 188.726562 L 272.394531 188.730469 C 275.71875 188.730469 278.84375 188.386719 281.746094 187.707031 C 281.746094 187.636719 281.746094 187.566406 281.746094 187.496094 C 281.746094 135.445312 239.550781 93.25 187.503906 93.25 C 135.453125 93.25 93.257812 135.445312 93.257812 187.496094 C 93.257812 191.421875 93.5 195.289062 93.96875 199.089844 C 97.292969 201.367188 101.003906 203.121094 104.9375 204.289062 " fill-opacity="1" fill-rule="nonzero"/></g><g clip-path="url(#babaa61126)"><path fill="#ffffff" d="M 271.183594 197.191406 C 266.375 239.148438 230.746094 271.738281 187.503906 271.738281 C 149.699219 271.738281 117.710938 246.835938 107.046875 212.542969 C 102.914062 211.304688 98.960938 209.496094 95.324219 207.183594 C 104.375 249.78125 142.203125 281.742188 187.503906 281.742188 C 237.046875 281.742188 277.660156 243.511719 281.453125 194.941406 C 278.25 196.113281 274.792969 196.875 271.183594 197.191406 " fill-opacity="1" fill-rule="nonzero"/></g><path fill="#ffffff" d="M 136.140625 127.433594 C 149.429688 132.3125 191.886719 145.160156 210.949219 216.511719 C 212.277344 221.476562 213.773438 227.484375 212.753906 232.855469 C 211.640625 238.722656 208.570312 241.359375 203.363281 241.867188 C 198.003906 242.390625 192.785156 239.726562 191.398438 233.839844 C 190.101562 228.351562 191.636719 223.148438 192.515625 218.519531 C 201.359375 171.777344 160.3125 137.632812 136.140625 127.433594 " fill-opacity="1" fill-rule="nonzero"/><path fill="#ffffff" d="M 166.1875 194.09375 C 166.640625 196.613281 167.136719 199.652344 166.414062 202.273438 C 165.621094 205.136719 163.992188 206.316406 161.390625 206.355469 C 158.710938 206.398438 156.234375 204.863281 155.785156 201.890625 C 155.367188 199.113281 156.339844 196.597656 156.964844 194.335938 C 163.261719 171.527344 144.304688 152.917969 132.738281 146.878906 C 139.128906 149.835938 159.652344 157.941406 166.1875 194.09375 " fill-opacity="1" fill-rule="nonzero"/><path fill="#ffffff" d="M 215.082031 156.042969 C 221.074219 158.054688 240.1875 163.273438 249.570312 194.894531 C 250.222656 197.097656 250.964844 199.761719 250.578125 202.171875 C 250.152344 204.804688 248.8125 206.019531 246.496094 206.308594 C 244.109375 206.609375 241.746094 205.484375 241.054688 202.875 C 240.410156 200.4375 241.03125 198.09375 241.367188 196.019531 C 244.746094 175.039062 226 160.296875 215.082031 156.042969 " fill-opacity="1" fill-rule="nonzero"/><g clip-path="url(#b99896a0d7)"><path fill="#ffffff" d="M 86.824219 196.351562 C 95.496094 205.117188 108.363281 209.460938 120.664062 208.238281 C 133.707031 206.941406 145.894531 199.644531 153.808594 189.191406 C 151.550781 195.511719 149.554688 203.332031 154.070312 208.292969 C 157.351562 211.894531 163.609375 212.1875 167.214844 208.910156 C 169.664062 206.683594 170.820312 203.253906 173.421875 201.203125 C 177.1875 198.226562 183.1875 199.300781 186.375 202.886719 C 189.566406 206.472656 190.148438 211.878906 188.703125 216.453125 C 186.4375 223.617188 179.707031 229.957031 181.359375 237.289062 C 182.304688 241.484375 185.878906 244.59375 189.648438 246.664062 C 194.636719 249.40625 200.316406 250.867188 206.003906 250.875 C 211.035156 250.882812 216.457031 249.523438 219.582031 245.582031 C 222.742188 241.59375 222.789062 235.953125 221.800781 230.964844 C 220.386719 223.839844 217.207031 217.1875 215.351562 210.164062 C 214.386719 206.523438 213.726562 202.726562 213.871094 198.949219 C 213.984375 195.960938 214.628906 190.582031 217.957031 189.40625 C 218.925781 189.0625 232.300781 188.804688 233.667969 189.386719 C 235.777344 190.289062 236.320312 192.476562 236.351562 194.574219 C 236.429688 199.988281 236.769531 207.148438 242.367188 209.953125 C 245.125 211.335938 248.726562 211.023438 251.023438 208.964844 C 252.40625 207.730469 253.246094 206 253.824219 204.242188 C 255.460938 199.222656 255.148438 193.753906 254.023438 188.597656 C 259.925781 190.046875 265.949219 191.15625 272.023438 191.199219 C 278.101562 191.246094 284.257812 190.191406 289.707031 187.496094 C 281.386719 194.335938 269.714844 196.113281 259.128906 194.125 C 259.273438 198.023438 259.308594 201.984375 258.289062 205.75 C 257.273438 209.515625 255.066406 213.113281 251.660156 215.015625 C 247.527344 217.324219 242.121094 216.710938 238.210938 214.042969 C 234.296875 211.378906 231.824219 206.917969 230.945312 202.265625 C 230.601562 200.449219 230.429688 198.472656 229.226562 197.070312 C 227.757812 195.351562 224.859375 195.125 223.140625 196.589844 C 221.902344 197.648438 221.355469 199.347656 221.332031 200.980469 C 221.292969 203.90625 222.332031 207.171875 223.148438 209.960938 C 224.328125 213.992188 225.875 217.898438 227.257812 221.855469 C 230.226562 230.339844 232.257812 240.144531 227.875 247.988281 C 225.097656 252.957031 220.015625 256.390625 214.539062 257.921875 C 209.058594 259.457031 203.207031 259.230469 197.625 258.121094 C 190.953125 256.800781 184.359375 254.128906 179.519531 249.34375 C 174.679688 244.5625 171.851562 237.433594 173.351562 230.792969 C 174.363281 226.324219 177.710938 222.6875 179.867188 218.746094 C 181.359375 216.023438 182.71875 212.472656 181.667969 209.34375 C 181.230469 208.046875 180.058594 206.8125 178.695312 206.914062 C 176.472656 207.085938 174.910156 210.652344 173.25 212.394531 C 171.96875 213.738281 170.152344 215.207031 168.5 216.050781 C 165.21875 217.726562 161.390625 218.265625 157.792969 217.410156 C 151.503906 215.917969 146.449219 210.210938 145.730469 203.789062 C 136.566406 210.34375 124.816406 213.171875 113.675781 211.5 C 102.53125 209.824219 92.128906 203.671875 85.296875 194.710938 C 85.792969 195.273438 86.300781 195.820312 86.824219 196.351562 " fill-opacity="1" fill-rule="nonzero"/></g></svg>