<svg xmlns="http://www.w3.org/2000/svg" xmlns:xlink="http://www.w3.org/1999/xlink" width="500" zoomAndPan="magnify" viewBox="0 0 375 374.999991" height="500" preserveAspectRatio="xMidYMid meet" version="1.0"><defs><g/><clipPath id="da3c0d7259"><path d="M 101.066406 109.945312 L 273.566406 109.945312 L 273.566406 196.945312 L 101.066406 196.945312 Z M 101.066406 109.945312 " clip-rule="nonzero"/></clipPath></defs><g clip-path="url(#da3c0d7259)"><path fill="#a37d66" d="M 235.257812 148.351562 L 192.019531 153.496094 L 195 152.660156 L 273.867188 136.15625 L 273.789062 135.800781 L 200.179688 151.207031 L 239.46875 140.144531 L 239.367188 139.785156 L 194.910156 152.3125 L 191.804688 152.960938 L 193.59375 152.234375 L 272.851562 128.632812 L 272.75 128.289062 L 197.074219 150.804688 L 214.4375 143.726562 L 271.6875 121.8125 L 271.554688 121.464844 L 230.246094 137.273438 L 243.921875 131.714844 L 243.789062 131.378906 L 214.304688 143.394531 L 201.105469 148.4375 L 269.632812 116.796875 L 269.476562 116.464844 L 195.992188 150.402344 L 195.5 150.59375 L 201.082031 147.679688 L 247.617188 124.9375 L 247.460938 124.613281 L 212.929688 141.496094 L 267.703125 112.835938 L 267.535156 112.511719 L 200.917969 147.34375 L 194.785156 150.335938 L 264.765625 110.738281 L 264.589844 110.414062 L 189.628906 152.839844 L 189.449219 152.90625 L 261.808594 110.300781 L 261.617188 109.988281 L 187.542969 153.609375 L 113.363281 109.945312 L 113.183594 110.257812 L 185.609375 152.882812 L 185.375 152.792969 L 110.417969 110.390625 L 110.238281 110.714844 L 180.21875 150.316406 L 174.085938 147.324219 L 107.445312 112.445312 L 107.277344 112.769531 L 162.0625 141.429688 L 127.53125 124.558594 L 127.375 124.882812 L 173.921875 147.636719 L 179.492188 150.550781 L 179 150.359375 L 105.527344 116.429688 L 105.371094 116.765625 L 173.886719 148.40625 L 160.703125 143.359375 L 131.214844 131.347656 L 131.082031 131.679688 L 144.769531 137.253906 L 103.460938 121.441406 L 103.328125 121.789062 L 160.578125 143.707031 L 178.320312 150.941406 L 102.253906 128.242188 L 102.144531 128.589844 L 181.8125 152.359375 L 183.1875 152.917969 L 180.070312 152.269531 L 135.625 139.753906 L 135.523438 140.109375 L 174.8125 151.164062 L 101.207031 135.765625 L 101.128906 136.125 L 179.992188 152.625 L 182.976562 153.464844 L 139.734375 148.316406 L 139.691406 148.683594 L 184.894531 154.066406 L 144.121094 157.023438 L 144.144531 157.394531 L 186.054688 154.34375 L 185.398438 154.726562 L 148.363281 165.308594 L 148.464844 165.667969 L 184.046875 155.496094 L 152.761719 173.292969 L 152.941406 173.617188 L 185.542969 155.070312 L 186.046875 154.925781 L 157.308594 180.695312 L 157.554688 180.960938 L 186.828125 154.714844 L 186.828125 154.726562 L 161.417969 186.632812 L 161.707031 186.855469 L 185.5 156.980469 L 164.800781 191.523438 L 165.113281 191.714844 L 186.894531 155.359375 L 186.894531 155.371094 L 168.339844 194.636719 L 168.671875 194.792969 L 186.714844 156.621094 L 185.898438 159.527344 L 172.167969 196.425781 L 172.511719 196.546875 L 184.660156 163.878906 L 175.5625 196.132812 L 175.917969 196.234375 L 186.246094 159.636719 L 186.324219 159.414062 L 178.074219 194.515625 L 178.429688 194.59375 L 186.714844 159.359375 L 186.59375 160.519531 L 180.730469 191.433594 L 181.089844 191.5 L 185.597656 167.710938 L 182.941406 186.132812 L 183.296875 186.1875 L 185.273438 172.488281 L 184.414062 180.382812 L 184.785156 180.425781 L 186.804688 161.960938 L 187.152344 159.546875 L 187.273438 158.933594 L 187.316406 159.414062 L 185.890625 173.136719 L 186.257812 173.167969 L 187.496094 161.179688 L 188.734375 173.214844 L 189.105469 173.179688 L 187.675781 159.402344 L 187.71875 158.933594 L 187.84375 159.582031 L 188.1875 161.980469 L 190.210938 180.449219 L 190.578125 180.402344 L 189.71875 172.511719 L 191.695312 186.210938 L 192.050781 186.152344 L 189.394531 167.730469 L 193.90625 191.535156 L 194.261719 191.46875 L 188.402344 160.5625 L 188.277344 159.414062 L 196.5625 194.648438 L 196.917969 194.570312 L 188.667969 159.46875 L 188.746094 159.683594 L 199.074219 196.28125 L 199.429688 196.179688 L 190.332031 163.925781 L 202.480469 196.59375 L 202.824219 196.46875 L 189.105469 159.570312 L 188.289062 156.667969 L 206.332031 194.839844 L 206.667969 194.683594 L 188.089844 155.40625 L 188.089844 155.394531 L 209.871094 191.757812 L 210.183594 191.566406 L 189.496094 157.011719 L 213.285156 186.890625 L 213.578125 186.667969 L 188.15625 154.746094 L 188.15625 154.734375 L 217.441406 181.007812 L 217.6875 180.738281 L 188.949219 154.960938 L 189.449219 155.105469 L 222.050781 173.648438 L 222.230469 173.324219 L 190.933594 155.527344 L 226.515625 165.699219 L 226.617188 165.34375 L 189.585938 154.757812 L 188.925781 154.378906 L 230.835938 157.425781 L 230.859375 157.058594 L 190.085938 154.101562 L 235.292969 148.71875 Z M 198.484375 149.847656 L 195.078125 151.230469 L 196.148438 150.738281 Z M 178.855469 150.695312 L 179.914062 151.1875 L 176.523438 149.800781 Z M 178.855469 150.695312 " fill-opacity="1" fill-rule="nonzero"/></g><g fill="#a37d66" fill-opacity="1"><g transform="translate(87.841463, 226.414336)"><g><path d="M 2.34375 0 L 2.34375 -20.46875 L 17.234375 -20.46875 L 17.234375 -19.1875 L 3.6875 -19.1875 L 3.6875 -11.03125 L 15.203125 -11.03125 L 15.203125 -9.859375 L 3.6875 -9.859375 L 3.6875 -1.28125 L 17.578125 -1.28125 L 17.578125 0 Z M 2.34375 0 "/></g></g></g><g fill="#a37d66" fill-opacity="1"><g transform="translate(114.800892, 226.414336)"><g><path d="M 9.5 0.34375 C 8.726562 0.34375 7.835938 0.253906 6.828125 0.078125 C 5.828125 -0.0859375 4.828125 -0.328125 3.828125 -0.640625 C 2.835938 -0.953125 1.976562 -1.3125 1.25 -1.71875 L 1.578125 -3.015625 C 2.378906 -2.523438 3.25 -2.125 4.1875 -1.8125 C 5.125 -1.5 6.054688 -1.265625 6.984375 -1.109375 C 7.921875 -0.953125 8.789062 -0.875 9.59375 -0.875 C 10.757812 -0.875 11.785156 -1.054688 12.671875 -1.421875 C 13.566406 -1.796875 14.265625 -2.316406 14.765625 -2.984375 C 15.273438 -3.648438 15.53125 -4.398438 15.53125 -5.234375 C 15.53125 -5.992188 15.335938 -6.644531 14.953125 -7.1875 C 14.578125 -7.738281 13.929688 -8.21875 13.015625 -8.625 C 12.097656 -9.039062 10.84375 -9.410156 9.25 -9.734375 C 6.726562 -10.242188 4.898438 -10.921875 3.765625 -11.765625 C 2.640625 -12.617188 2.078125 -13.816406 2.078125 -15.359375 C 2.078125 -16.390625 2.378906 -17.3125 2.984375 -18.125 C 3.585938 -18.945312 4.429688 -19.597656 5.515625 -20.078125 C 6.597656 -20.554688 7.84375 -20.796875 9.25 -20.796875 C 10.644531 -20.796875 11.90625 -20.644531 13.03125 -20.34375 C 14.15625 -20.039062 15.078125 -19.695312 15.796875 -19.3125 L 15.796875 -17.90625 C 15.085938 -18.289062 14.171875 -18.65625 13.046875 -19 C 11.929688 -19.351562 10.632812 -19.53125 9.15625 -19.53125 C 7.96875 -19.53125 6.945312 -19.335938 6.09375 -18.953125 C 5.25 -18.566406 4.601562 -18.0625 4.15625 -17.4375 C 3.707031 -16.8125 3.484375 -16.128906 3.484375 -15.390625 C 3.484375 -14.648438 3.679688 -14.007812 4.078125 -13.46875 C 4.484375 -12.9375 5.140625 -12.46875 6.046875 -12.0625 C 6.953125 -11.664062 8.175781 -11.300781 9.71875 -10.96875 C 12.34375 -10.425781 14.203125 -9.71875 15.296875 -8.84375 C 16.390625 -7.976562 16.9375 -6.804688 16.9375 -5.328125 C 16.9375 -4.210938 16.640625 -3.226562 16.046875 -2.375 C 15.453125 -1.53125 14.597656 -0.863281 13.484375 -0.375 C 12.367188 0.101562 11.039062 0.34375 9.5 0.34375 Z M 9.5 0.34375 "/></g></g></g><g fill="#a37d66" fill-opacity="1"><g transform="translate(141.000124, 226.414336)"><g><path d="M 8.421875 0 L 8.421875 -19.1875 L 0.9375 -19.1875 L 0.9375 -20.46875 L 17.28125 -20.46875 L 17.28125 -19.1875 L 9.796875 -19.1875 L 9.796875 0 Z M 8.421875 0 "/></g></g></g><g fill="#a37d66" fill-opacity="1"><g transform="translate(166.994691, 226.414336)"><g><path d="M 2.34375 0 L 2.34375 -20.46875 L 3.6875 -20.46875 L 3.6875 -10.734375 L 18.109375 -10.734375 L 18.109375 -20.46875 L 19.453125 -20.46875 L 19.453125 0 L 18.109375 0 L 18.109375 -9.421875 L 3.6875 -9.421875 L 3.6875 0 Z M 2.34375 0 "/></g></g></g><g fill="#a37d66" fill-opacity="1"><g transform="translate(196.527083, 226.414336)"><g><path d="M 2.34375 0 L 2.34375 -20.46875 L 17.234375 -20.46875 L 17.234375 -19.1875 L 3.6875 -19.1875 L 3.6875 -11.03125 L 15.203125 -11.03125 L 15.203125 -9.859375 L 3.6875 -9.859375 L 3.6875 -1.28125 L 17.578125 -1.28125 L 17.578125 0 Z M 2.34375 0 "/></g></g></g><g fill="#a37d66" fill-opacity="1"><g transform="translate(223.486512, 226.414336)"><g><path d="M 7.546875 0.34375 L 0.46875 -20.46875 L 1.90625 -20.46875 L 7.65625 -3.421875 L 7.84375 -3.421875 L 14.359375 -20.796875 L 14.765625 -20.796875 L 21.296875 -3.421875 L 21.5 -3.421875 L 27.265625 -20.46875 L 28.6875 -20.46875 L 21.609375 0.34375 L 21.234375 0.34375 L 14.6875 -16.9375 L 14.484375 -16.9375 L 7.890625 0.34375 Z M 7.546875 0.34375 "/></g></g></g><g fill="#a37d66" fill-opacity="1"><g transform="translate(260.416171, 226.414336)"><g><path d="M 0.34375 0 L 10.09375 -20.796875 L 10.5 -20.796875 L 20.234375 0 L 18.71875 0 L 16.796875 -4.21875 L 3.796875 -4.21875 L 1.90625 0 Z M 4.359375 -5.359375 L 16.265625 -5.359375 L 10.390625 -18.140625 L 10.203125 -18.140625 Z M 4.359375 -5.359375 "/></g></g></g><g fill="#a37d66" fill-opacity="1"><g transform="translate(288.779035, 226.414336)"><g><path d="M 9.03125 0 L 9.03125 -8.359375 L 0.34375 -20.46875 L 1.984375 -20.46875 L 9.625 -9.890625 L 9.796875 -9.890625 L 17.484375 -20.46875 L 19.09375 -20.46875 L 10.390625 -8.34375 L 10.390625 0 Z M 9.03125 0 "/></g></g></g></svg>